<?xml version="1.0" encoding="UTF-8" standalone="no"?>
<!DOCTYPE svg PUBLIC "-//W3C//DTD SVG 1.1//EN" "http://www.w3.org/Graphics/SVG/1.1/DTD/svg11.dtd">
<svg version="1.1" xmlns="http://www.w3.org/2000/svg" xmlns:xlink="http://www.w3.org/1999/xlink" preserveAspectRatio="xMidYMid meet" viewBox="0 0 205 39" width="205" height="39"><defs><path d="M133.86 0.99L135.17 1.22L136.45 1.54L137.69 1.94L138.89 2.43L140.05 2.99L141.17 3.63L142.24 4.33L143.25 5.11L144.21 5.95L145.11 6.85L145.95 7.81L146.73 8.83L147.44 9.89L148.07 11.01L148.63 12.17L149.12 13.37L149.52 14.61L149.84 15.89L150.07 17.2L150.22 18.53L150.26 19.9L150.22 21.26L150.07 22.6L149.84 23.91L149.52 25.18L149.12 26.43L148.63 27.63L148.07 28.79L147.44 29.9L146.73 30.97L145.95 31.99L145.11 32.95L144.21 33.85L143.25 34.69L142.24 35.46L141.17 36.17L140.05 36.81L138.89 37.37L137.69 37.85L136.45 38.26L135.17 38.58L133.86 38.81L132.52 38.95L131.16 39L129.8 38.95L128.46 38.81L127.15 38.58L125.87 38.26L124.63 37.85L123.43 37.37L122.27 36.81L121.16 36.17L120.09 35.46L119.08 34.69L118.12 33.85L117.21 32.95L116.37 31.99L115.6 30.97L114.89 29.9L114.25 28.79L113.69 27.63L113.21 26.43L112.8 25.18L112.48 23.91L112.25 22.6L112.11 21.26L112.06 19.9L112.11 18.53L112.25 17.2L112.48 15.89L112.8 14.61L113.21 13.37L113.69 12.17L114.25 11.01L114.89 9.89L115.6 8.83L116.37 7.81L117.21 6.85L118.12 5.95L119.08 5.11L120.09 4.33L121.16 3.63L122.27 2.99L123.43 2.43L124.63 1.94L125.87 1.54L127.15 1.22L128.46 0.99L129.8 0.85L131.16 0.8L132.52 0.85L133.86 0.99Z" id="dNcyaImny"></path><path d="M134.12 10.42L135.39 10.9L136.56 11.55L137.63 12.36L138.57 13.3L139.37 14.36L140.03 15.54L140.51 16.81L140.81 18.15L140.91 19.56L140.81 20.98L140.51 22.33L140.03 23.59L139.37 24.77L138.57 25.83L137.63 26.78L136.56 27.58L135.39 28.23L134.12 28.71L132.78 29.02L131.36 29.12L129.95 29.02L128.6 28.71L127.33 28.23L126.16 27.58L125.1 26.78L124.15 25.83L123.35 24.77L122.7 23.59L122.22 22.33L121.92 20.98L121.81 19.56L121.92 18.15L122.22 16.81L122.7 15.54L123.35 14.36L124.15 13.3L125.1 12.36L126.16 11.55L127.33 10.9L128.6 10.42L129.95 10.12L131.36 10.02L132.78 10.12L134.12 10.42Z" id="b78SRSnug"></path><path d="M188.71 0.99L190.02 1.22L191.3 1.54L192.54 1.94L193.74 2.43L194.9 2.99L196.01 3.63L197.08 4.33L198.1 5.11L199.06 5.95L199.96 6.85L200.8 7.81L201.57 8.83L202.28 9.89L202.92 11.01L203.48 12.17L203.96 13.37L204.37 14.61L204.69 15.89L204.92 17.2L205.06 18.53L205.11 19.9L205.06 21.26L204.92 22.6L204.69 23.91L204.37 25.18L203.96 26.43L203.48 27.63L202.92 28.79L202.28 29.9L201.57 30.97L200.8 31.99L199.96 32.95L199.06 33.85L198.1 34.69L197.08 35.46L196.01 36.17L194.9 36.81L193.74 37.37L192.54 37.85L191.3 38.26L190.02 38.58L188.71 38.81L187.37 38.95L186.01 39L184.65 38.95L183.31 38.81L182 38.58L180.72 38.26L179.48 37.85L178.28 37.37L177.12 36.81L176.01 36.17L174.94 35.46L173.93 34.69L172.97 33.85L172.06 32.95L171.22 31.99L170.45 30.97L169.74 29.9L169.1 28.79L168.54 27.63L168.06 26.43L167.65 25.18L167.33 23.91L167.1 22.6L166.96 21.26L166.91 19.9L166.96 18.53L167.1 17.2L167.33 15.89L167.65 14.61L168.06 13.37L168.54 12.17L169.1 11.01L169.74 9.89L170.45 8.83L171.22 7.81L172.06 6.85L172.97 5.95L173.93 5.11L174.94 4.33L176.01 3.63L177.12 2.99L178.28 2.43L179.48 1.94L180.72 1.54L182 1.22L183.31 0.99L184.65 0.85L186.01 0.8L187.37 0.85L188.71 0.99Z" id="ftcCHOEeo"></path><path d="M188.97 10.42L190.24 10.9L191.41 11.55L192.48 12.36L193.42 13.3L194.22 14.36L194.87 15.54L195.36 16.81L195.66 18.15L195.76 19.56L195.66 20.98L195.36 22.33L194.87 23.59L194.22 24.77L193.42 25.83L192.48 26.78L191.41 27.58L190.24 28.23L188.97 28.71L187.62 29.02L186.21 29.12L184.8 29.02L183.45 28.71L182.18 28.23L181.01 27.58L179.94 26.78L179 25.83L178.2 24.77L177.55 23.59L177.06 22.33L176.76 20.98L176.66 19.56L176.76 18.15L177.06 16.81L177.55 15.54L178.2 14.36L179 13.3L179.94 12.36L181.01 11.55L182.18 10.9L183.45 10.42L184.8 10.12L186.21 10.02L187.62 10.12L188.97 10.42Z" id="bykFa0Z6U"></path><path d="M77.43 0.59L78.74 0.82L80.01 1.14L81.25 1.54L82.45 2.03L83.61 2.59L84.73 3.23L85.8 3.94L86.81 4.71L87.77 5.55L88.67 6.45L89.51 7.41L90.29 8.43L91 9.49L91.63 10.61L92.19 11.77L92.68 12.97L93.08 14.21L93.4 15.49L93.63 16.8L93.78 18.14L93.82 19.5L93.78 20.87L93.63 22.2L93.4 23.51L93.08 24.79L92.68 26.03L92.19 27.23L91.63 28.39L91 29.51L90.29 30.57L89.51 31.59L88.67 32.55L87.77 33.45L86.81 34.29L85.8 35.06L84.73 35.77L83.61 36.41L82.45 36.97L81.25 37.46L80.01 37.86L78.74 38.18L77.43 38.41L76.09 38.55L74.73 38.6L73.36 38.55L72.02 38.41L70.71 38.18L69.44 37.86L68.2 37.46L66.99 36.97L65.83 36.41L64.72 35.77L63.65 35.06L62.64 34.29L61.68 33.45L60.77 32.55L59.93 31.59L59.16 30.57L58.45 29.51L57.81 28.39L57.25 27.23L56.77 26.03L56.36 24.79L56.04 23.51L55.81 22.2L55.67 20.87L55.62 19.5L55.67 18.14L55.81 16.8L56.04 15.49L56.36 14.21L56.77 12.97L57.25 11.77L57.81 10.61L58.45 9.49L59.16 8.43L59.93 7.41L60.77 6.45L61.68 5.55L62.64 4.71L63.65 3.94L64.72 3.23L65.83 2.59L66.99 2.03L68.2 1.54L69.44 1.14L70.71 0.82L72.02 0.59L73.36 0.45L74.73 0.4L76.09 0.45L77.43 0.59Z" id="d7Cgjm73w"></path><path d="M77.68 10.02L78.95 10.5L80.12 11.16L81.19 11.96L82.13 12.9L82.93 13.97L83.58 15.14L84.07 16.41L84.37 17.76L84.47 19.17L84.37 20.58L84.07 21.93L83.58 23.2L82.93 24.37L82.13 25.44L81.19 26.38L80.12 27.18L78.95 27.83L77.68 28.32L76.33 28.62L74.92 28.72L73.51 28.62L72.16 28.32L70.89 27.83L69.72 27.18L68.65 26.38L67.71 25.44L66.91 24.37L66.26 23.2L65.78 21.93L65.48 20.58L65.37 19.17L65.48 17.76L65.78 16.41L66.26 15.14L66.91 13.97L67.71 12.9L68.65 11.96L69.72 11.16L70.89 10.5L72.16 10.02L73.51 9.72L74.92 9.62L76.33 9.72L77.68 10.02Z" id="k4XMKvudme"></path><path d="M22.18 0.19L23.49 0.42L24.76 0.74L26 1.15L27.21 1.63L28.37 2.19L29.48 2.83L30.55 3.54L31.56 4.31L32.52 5.15L33.43 6.06L34.27 7.02L35.04 8.03L35.75 9.1L36.39 10.21L36.95 11.37L37.43 12.58L37.84 13.82L38.16 15.09L38.39 16.4L38.53 17.74L38.58 19.1L38.53 20.47L38.39 21.8L38.16 23.11L37.84 24.39L37.43 25.63L36.95 26.83L36.39 27.99L35.75 29.11L35.04 30.17L34.27 31.19L33.43 32.15L32.52 33.05L31.56 33.89L30.55 34.67L29.48 35.37L28.37 36.01L27.21 36.57L26 37.06L24.76 37.46L23.49 37.78L22.18 38.01L20.84 38.15L19.48 38.2L18.11 38.15L16.78 38.01L15.47 37.78L14.19 37.46L12.95 37.06L11.75 36.57L10.59 36.01L9.47 35.37L8.41 34.67L7.39 33.89L6.43 33.05L5.53 32.15L4.69 31.19L3.91 30.17L3.21 29.11L2.57 27.99L2.01 26.83L1.52 25.63L1.12 24.39L0.8 23.11L0.57 21.8L0.43 20.47L0.38 19.1L0.43 17.74L0.57 16.4L0.8 15.09L1.12 13.82L1.52 12.58L2.01 11.37L2.57 10.21L3.21 9.1L3.91 8.03L4.69 7.02L5.53 6.06L6.43 5.15L7.39 4.31L8.41 3.54L9.47 2.83L10.59 2.19L11.75 1.63L12.95 1.15L14.19 0.74L15.47 0.42L16.78 0.19L18.11 0.05L19.48 0L20.84 0.05L22.18 0.19Z" id="aeZGJprjG"></path><path d="M22.44 9.63L23.7 10.11L24.88 10.76L25.94 11.56L26.89 12.5L27.69 13.57L28.34 14.74L28.82 16.01L29.12 17.36L29.23 18.77L29.12 20.18L28.82 21.53L28.34 22.8L27.69 23.97L26.89 25.04L25.94 25.98L24.88 26.78L23.7 27.43L22.44 27.92L21.09 28.22L19.68 28.32L18.27 28.22L16.92 27.92L15.65 27.43L14.47 26.78L13.41 25.98L12.47 25.04L11.66 23.97L11.01 22.8L10.53 21.53L10.23 20.18L10.12 18.77L10.23 17.36L10.53 16.01L11.01 14.74L11.66 13.57L12.47 12.5L13.41 11.56L14.47 10.76L15.65 10.11L16.92 9.63L18.27 9.33L19.68 9.22L21.09 9.33L22.44 9.63Z" id="b1ITNzSvo"></path></defs><g><g><g><use xlink:href="#dNcyaImny" opacity="1" fill="#9b59b6" fill-opacity="1"></use><g><use xlink:href="#dNcyaImny" opacity="1" fill-opacity="0" stroke="#000000" stroke-width="1" stroke-opacity="0"></use></g></g><g><use xlink:href="#b78SRSnug" opacity="1" fill="#ffffff" fill-opacity="1"></use><g><use xlink:href="#b78SRSnug" opacity="1" fill-opacity="0" stroke="#000000" stroke-width="1" stroke-opacity="0"></use></g></g><g><use xlink:href="#ftcCHOEeo" opacity="1" fill="#e64a3a" fill-opacity="1"></use><g><use xlink:href="#ftcCHOEeo" opacity="1" fill-opacity="0" stroke="#000000" stroke-width="1" stroke-opacity="0"></use></g></g><g><use xlink:href="#bykFa0Z6U" opacity="1" fill="#ffffff" fill-opacity="1"></use><g><use xlink:href="#bykFa0Z6U" opacity="1" fill-opacity="0" stroke="#000000" stroke-width="1" stroke-opacity="0"></use></g></g><g><use xlink:href="#d7Cgjm73w" opacity="1" fill="#e67d21" fill-opacity="1"></use><g><use xlink:href="#d7Cgjm73w" opacity="1" fill-opacity="0" stroke="#000000" stroke-width="1" stroke-opacity="0"></use></g></g><g><use xlink:href="#k4XMKvudme" opacity="1" fill="#ffffff" fill-opacity="1"></use><g><use xlink:href="#k4XMKvudme" opacity="1" fill-opacity="0" stroke="#000000" stroke-width="1" stroke-opacity="0"></use></g></g><g><use xlink:href="#aeZGJprjG" opacity="1" fill="#2bca70" fill-opacity="1"></use><g><use xlink:href="#aeZGJprjG" opacity="1" fill-opacity="0" stroke="#000000" stroke-width="1" stroke-opacity="0"></use></g></g><g><use xlink:href="#b1ITNzSvo" opacity="1" fill="#ffffff" fill-opacity="1"></use><g><use xlink:href="#b1ITNzSvo" opacity="1" fill-opacity="0" stroke="#000000" stroke-width="1" stroke-opacity="0"></use></g></g></g></g></svg>