<?xml version="1.0" encoding="UTF-8" standalone="no"?>
<svg
   xmlns:dc="http://purl.org/dc/elements/1.1/"
   xmlns:cc="http://creativecommons.org/ns#"
   xmlns:rdf="http://www.w3.org/1999/02/22-rdf-syntax-ns#"
   xmlns:svg="http://www.w3.org/2000/svg"
   xmlns="http://www.w3.org/2000/svg"
   xmlns:xlink="http://www.w3.org/1999/xlink"
   xmlns:sodipodi="http://sodipodi.sourceforge.net/DTD/sodipodi-0.dtd"
   xmlns:inkscape="http://www.inkscape.org/namespaces/inkscape"
   version="1.1"
   preserveAspectRatio="xMidYMid meet"
   viewBox="0 0 206 39"
   width="206"
   height="39"
   id="svg1204"
   sodipodi:docname="titles.svg"
   inkscape:version="0.92.2 (5c3e80d, 2017-08-06)">
  <metadata
     id="metadata1208">
    <rdf:RDF>
      <cc:Work
         rdf:about="">
        <dc:format>image/svg+xml</dc:format>
        <dc:type
           rdf:resource="http://purl.org/dc/dcmitype/StillImage" />
      </cc:Work>
    </rdf:RDF>
  </metadata>
  <sodipodi:namedview
     pagecolor="#ffffff"
     bordercolor="#666666"
     borderopacity="1"
     objecttolerance="10"
     gridtolerance="10"
     guidetolerance="10"
     inkscape:pageopacity="0"
     inkscape:pageshadow="2"
     inkscape:window-width="1366"
     inkscape:window-height="745"
     id="namedview1206"
     showgrid="false"
     inkscape:zoom="1.3786408"
     inkscape:cx="103"
     inkscape:cy="19.5"
     inkscape:window-x="-8"
     inkscape:window-y="-8"
     inkscape:window-maximized="1"
     inkscape:current-layer="g1200" />
  <defs
     id="defs1070">
    <path
       d="M134.93 1.22L136.21 1.54L137.45 1.94L138.65 2.43L139.81 2.99L140.92 3.63L141.99 4.33L143.01 5.11L143.97 5.95L144.87 6.85L145.71 7.81L146.48 8.83L147.19 9.89L147.83 11.01L148.39 12.17L148.88 13.37L149.28 14.61L149.6 15.89L149.83 17.2L149.97 18.53L150.02 19.9L149.97 21.26L149.83 22.6L149.6 23.91L149.28 25.18L148.88 26.43L148.39 27.63L147.83 28.79L147.19 29.9L146.48 30.97L145.71 31.99L144.87 32.95L143.97 33.85L143.01 34.69L141.99 35.46L140.92 36.17L139.81 36.81L138.65 37.37L137.45 37.85L136.21 38.26L134.93 38.58L133.62 38.81L132.28 38.95L130.92 39L129.55 38.95L128.22 38.81L126.91 38.58L125.63 38.26L124.39 37.85L123.19 37.37L122.03 36.81L120.91 36.17L119.85 35.46L118.83 34.69L117.87 33.85L116.97 32.95L116.13 31.99L115.35 30.97L114.65 29.9L114.01 28.79L113.45 27.63L112.96 26.43L112.56 25.18L112.24 23.91L112.01 22.6L111.87 21.26L111.82 19.9L111.87 18.53L112.01 17.2L112.24 15.89L112.56 14.61L112.96 13.37L113.45 12.17L114.01 11.01L114.65 9.89L115.35 8.83L116.13 7.81L116.97 6.85L117.87 5.95L118.83 5.11L119.85 4.33L120.91 3.63L122.03 2.99L123.19 2.43L124.39 1.94L125.63 1.54L126.91 1.22L128.22 0.99L129.55 0.85L130.92 0.8L132.28 0.85L133.62 0.99L134.93 1.22Z"
       id="a1otGd3bkP" />
    <path
       d="M134.93 1.22L136.21 1.54L137.45 1.94L138.65 2.43L139.81 2.99L140.92 3.63L141.99 4.33L143.01 5.11L143.97 5.95L144.87 6.85L145.71 7.81L146.48 8.83L147.19 9.89L147.83 11.01L148.39 12.17L148.88 13.37L149.28 14.61L149.6 15.89L149.83 17.2L149.97 18.53L150.02 19.9L149.97 21.26L149.83 22.6L149.6 23.91L149.28 25.18L148.88 26.43L148.39 27.63L147.83 28.79L147.19 29.9L146.48 30.97L145.71 31.99L144.87 32.95L143.97 33.85L143.01 34.69L141.99 35.46L140.92 36.17L139.81 36.81L138.65 37.37L137.45 37.85L136.21 38.26L134.93 38.58L133.62 38.81L132.28 38.95L130.92 39L129.55 38.95L128.22 38.81L126.91 38.58L125.63 38.26L124.39 37.85L123.19 37.37L122.03 36.81L120.91 36.17L119.85 35.46L118.83 34.69L117.87 33.85L116.97 32.95L116.13 31.99L115.35 30.97L114.65 29.9L114.01 28.79L113.45 27.63L112.96 26.43L112.56 25.18L112.24 23.91L112.01 22.6L111.87 21.26L111.82 19.9L111.87 18.53L112.01 17.2L112.24 15.89L112.56 14.61L112.96 13.37L113.45 12.17L114.01 11.01L114.65 9.89L115.35 8.83L116.13 7.81L116.97 6.85L117.87 5.95L118.83 5.11L119.85 4.33L120.91 3.63L122.03 2.99L123.19 2.43L124.39 1.94L125.63 1.54L126.91 1.22L128.22 0.99L129.55 0.85L130.92 0.8L132.28 0.85L133.62 0.99L134.93 1.22Z"
       id="huMmgvq0N" />
    <path
       d="M135.15 10.9L136.32 11.55L137.39 12.36L138.33 13.3L139.13 14.36L139.78 15.54L140.26 16.81L140.56 18.15L140.67 19.56L140.56 20.98L140.26 22.33L139.78 23.59L139.13 24.77L138.33 25.83L137.39 26.78L136.32 27.58L135.15 28.23L133.88 28.71L132.53 29.02L131.12 29.12L129.71 29.02L128.36 28.71L127.09 28.23L125.92 27.58L124.85 26.78L123.91 25.83L123.11 24.77L122.46 23.59L121.97 22.33L121.67 20.98L121.57 19.56L121.67 18.15L121.97 16.81L122.46 15.54L123.11 14.36L123.91 13.3L124.85 12.36L125.92 11.55L127.09 10.9L128.36 10.42L129.71 10.12L131.12 10.02L132.53 10.12L133.88 10.42L135.15 10.9Z"
       id="bKuJeaKir" />
    <path
       d="M135.15 10.9L136.32 11.55L137.39 12.36L138.33 13.3L139.13 14.36L139.78 15.54L140.26 16.81L140.56 18.15L140.67 19.56L140.56 20.98L140.26 22.33L139.78 23.59L139.13 24.77L138.33 25.83L137.39 26.78L136.32 27.58L135.15 28.23L133.88 28.71L132.53 29.02L131.12 29.12L129.71 29.02L128.36 28.71L127.09 28.23L125.92 27.58L124.85 26.78L123.91 25.83L123.11 24.77L122.46 23.59L121.97 22.33L121.67 20.98L121.57 19.56L121.67 18.15L121.97 16.81L122.46 15.54L123.11 14.36L123.91 13.3L124.85 12.36L125.92 11.55L127.09 10.9L128.36 10.42L129.71 10.12L131.12 10.02L132.53 10.12L133.88 10.42L135.15 10.9Z"
       id="cTAbDTlRj" />
    <path
       d="M189.78 1.22L191.05 1.54L192.29 1.94L193.5 2.43L194.66 2.99L195.77 3.63L196.84 4.33L197.85 5.11L198.81 5.95L199.71 6.85L200.55 7.81L201.33 8.83L202.04 9.89L202.67 11.01L203.24 12.17L203.72 13.37L204.12 14.61L204.44 15.89L204.68 17.2L204.82 18.53L204.87 19.9L204.82 21.26L204.68 22.6L204.44 23.91L204.12 25.18L203.72 26.43L203.24 27.63L202.67 28.79L202.04 29.9L201.33 30.97L200.55 31.99L199.71 32.95L198.81 33.85L197.85 34.69L196.84 35.46L195.77 36.17L194.66 36.81L193.5 37.37L192.29 37.85L191.05 38.26L189.78 38.58L188.47 38.81L187.13 38.95L185.77 39L184.4 38.95L183.07 38.81L181.76 38.58L180.48 38.26L179.24 37.85L178.04 37.37L176.88 36.81L175.76 36.17L174.7 35.46L173.68 34.69L172.72 33.85L171.82 32.95L170.98 31.99L170.2 30.97L169.5 29.9L168.86 28.79L168.3 27.63L167.81 26.43L167.41 25.18L167.09 23.91L166.86 22.6L166.72 21.26L166.67 19.9L166.72 18.53L166.86 17.2L167.09 15.89L167.41 14.61L167.81 13.37L168.3 12.17L168.86 11.01L169.5 9.89L170.2 8.83L170.98 7.81L171.82 6.85L172.72 5.95L173.68 5.11L174.7 4.33L175.76 3.63L176.88 2.99L178.04 2.43L179.24 1.94L180.48 1.54L181.76 1.22L183.07 0.99L184.4 0.85L185.77 0.8L187.13 0.85L188.47 0.99L189.78 1.22Z"
       id="bVCTScxkY" />
    <path
       d="M189.78 1.22L191.05 1.54L192.29 1.94L193.5 2.43L194.66 2.99L195.77 3.63L196.84 4.33L197.85 5.11L198.81 5.95L199.71 6.85L200.55 7.81L201.33 8.83L202.04 9.89L202.67 11.01L203.24 12.17L203.72 13.37L204.12 14.61L204.44 15.89L204.68 17.2L204.82 18.53L204.87 19.9L204.82 21.26L204.68 22.6L204.44 23.91L204.12 25.18L203.72 26.43L203.24 27.63L202.67 28.79L202.04 29.9L201.33 30.97L200.55 31.99L199.71 32.95L198.81 33.85L197.85 34.69L196.84 35.46L195.77 36.17L194.66 36.81L193.5 37.37L192.29 37.85L191.05 38.26L189.78 38.58L188.47 38.81L187.13 38.95L185.77 39L184.4 38.95L183.07 38.81L181.76 38.58L180.48 38.26L179.24 37.85L178.04 37.37L176.88 36.81L175.76 36.17L174.7 35.46L173.68 34.69L172.72 33.85L171.82 32.95L170.98 31.99L170.2 30.97L169.5 29.9L168.86 28.79L168.3 27.63L167.81 26.43L167.41 25.18L167.09 23.91L166.86 22.6L166.72 21.26L166.67 19.9L166.72 18.53L166.86 17.2L167.09 15.89L167.41 14.61L167.81 13.37L168.3 12.17L168.86 11.01L169.5 9.89L170.2 8.83L170.98 7.81L171.82 6.85L172.72 5.95L173.68 5.11L174.7 4.33L175.76 3.63L176.88 2.99L178.04 2.43L179.24 1.94L180.48 1.54L181.76 1.22L183.07 0.99L184.4 0.85L185.77 0.8L187.13 0.85L188.47 0.99L189.78 1.22Z"
       id="a16L9e8jQc" />
    <path
       d="M189.99 10.9L191.17 11.55L192.23 12.36L193.18 13.3L193.98 14.36L194.63 15.54L195.11 16.81L195.41 18.15L195.52 19.56L195.41 20.98L195.11 22.33L194.63 23.59L193.98 24.77L193.18 25.83L192.23 26.78L191.17 27.58L189.99 28.23L188.72 28.71L187.38 29.02L185.96 29.12L184.55 29.02L183.21 28.71L181.94 28.23L180.76 27.58L179.7 26.78L178.76 25.83L177.95 24.77L177.3 23.59L176.82 22.33L176.52 20.98L176.41 19.56L176.52 18.15L176.82 16.81L177.3 15.54L177.95 14.36L178.76 13.3L179.7 12.36L180.76 11.55L181.94 10.9L183.21 10.42L184.55 10.12L185.96 10.02L187.38 10.12L188.72 10.42L189.99 10.9Z"
       id="b1eNFDlgXm" />
    <path
       d="M189.99 10.9L191.17 11.55L192.23 12.36L193.18 13.3L193.98 14.36L194.63 15.54L195.11 16.81L195.41 18.15L195.52 19.56L195.41 20.98L195.11 22.33L194.63 23.59L193.98 24.77L193.18 25.83L192.23 26.78L191.17 27.58L189.99 28.23L188.72 28.71L187.38 29.02L185.96 29.12L184.55 29.02L183.21 28.71L181.94 28.23L180.76 27.58L179.7 26.78L178.76 25.83L177.95 24.77L177.3 23.59L176.82 22.33L176.52 20.98L176.41 19.56L176.52 18.15L176.82 16.81L177.3 15.54L177.95 14.36L178.76 13.3L179.7 12.36L180.76 11.55L181.94 10.9L183.21 10.42L184.55 10.12L185.96 10.02L187.38 10.12L188.72 10.42L189.99 10.9Z"
       id="a6qyK68dSg" />
    <path
       d="M78.49 0.82L79.77 1.14L81.01 1.54L82.21 2.03L83.37 2.59L84.49 3.23L85.55 3.94L86.57 4.71L87.53 5.55L88.43 6.45L89.27 7.41L90.04 8.43L90.75 9.49L91.39 10.61L91.95 11.77L92.43 12.97L92.84 14.21L93.16 15.49L93.39 16.8L93.53 18.14L93.58 19.5L93.53 20.87L93.39 22.2L93.16 23.51L92.84 24.79L92.43 26.03L91.95 27.23L91.39 28.39L90.75 29.51L90.04 30.57L89.27 31.59L88.43 32.55L87.53 33.45L86.57 34.29L85.55 35.06L84.49 35.77L83.37 36.41L82.21 36.97L81.01 37.46L79.77 37.86L78.49 38.18L77.18 38.41L75.85 38.55L74.48 38.6L73.12 38.55L71.78 38.41L70.47 38.18L69.19 37.86L67.95 37.46L66.75 36.97L65.59 36.41L64.47 35.77L63.41 35.06L62.39 34.29L61.43 33.45L60.53 32.55L59.69 31.59L58.91 30.57L58.21 29.51L57.57 28.39L57.01 27.23L56.52 26.03L56.12 24.79L55.8 23.51L55.57 22.2L55.43 20.87L55.38 19.5L55.43 18.14L55.57 16.8L55.8 15.49L56.12 14.21L56.52 12.97L57.01 11.77L57.57 10.61L58.21 9.49L58.91 8.43L59.69 7.41L60.53 6.45L61.43 5.55L62.39 4.71L63.41 3.94L64.47 3.23L65.59 2.59L66.75 2.03L67.95 1.54L69.19 1.14L70.47 0.82L71.78 0.59L73.12 0.45L74.48 0.4L75.85 0.45L77.18 0.59L78.49 0.82Z"
       id="ay1NTEQIN" />
    <path
       d="M78.49 0.82L79.77 1.14L81.01 1.54L82.21 2.03L83.37 2.59L84.49 3.23L85.55 3.94L86.57 4.71L87.53 5.55L88.43 6.45L89.27 7.41L90.04 8.43L90.75 9.49L91.39 10.61L91.95 11.77L92.43 12.97L92.84 14.21L93.16 15.49L93.39 16.8L93.53 18.14L93.58 19.5L93.53 20.87L93.39 22.2L93.16 23.51L92.84 24.79L92.43 26.03L91.95 27.23L91.39 28.39L90.75 29.51L90.04 30.57L89.27 31.59L88.43 32.55L87.53 33.45L86.57 34.29L85.55 35.06L84.49 35.77L83.37 36.41L82.21 36.97L81.01 37.46L79.77 37.86L78.49 38.18L77.18 38.41L75.85 38.55L74.48 38.6L73.12 38.55L71.78 38.41L70.47 38.18L69.19 37.86L67.95 37.46L66.75 36.97L65.59 36.41L64.47 35.77L63.41 35.06L62.39 34.29L61.43 33.45L60.53 32.55L59.69 31.59L58.91 30.57L58.21 29.51L57.57 28.39L57.01 27.23L56.52 26.03L56.12 24.79L55.8 23.51L55.57 22.2L55.43 20.87L55.38 19.5L55.43 18.14L55.57 16.8L55.8 15.49L56.12 14.21L56.52 12.97L57.01 11.77L57.57 10.61L58.21 9.49L58.91 8.43L59.69 7.41L60.53 6.45L61.43 5.55L62.39 4.71L63.41 3.94L64.47 3.23L65.59 2.59L66.75 2.03L67.95 1.54L69.19 1.14L70.47 0.82L71.78 0.59L73.12 0.45L74.48 0.4L75.85 0.45L77.18 0.59L78.49 0.82Z"
       id="g7rVYPKq9" />
    <path
       d="M78.71 10.5L79.88 11.16L80.95 11.96L81.89 12.9L82.69 13.97L83.34 15.14L83.82 16.41L84.12 17.76L84.23 19.17L84.12 20.58L83.82 21.93L83.34 23.2L82.69 24.37L81.89 25.44L80.95 26.38L79.88 27.18L78.71 27.83L77.44 28.32L76.09 28.62L74.68 28.72L73.27 28.62L71.92 28.32L70.65 27.83L69.48 27.18L68.41 26.38L67.47 25.44L66.67 24.37L66.02 23.2L65.53 21.93L65.23 20.58L65.13 19.17L65.23 17.76L65.53 16.41L66.02 15.14L66.67 13.97L67.47 12.9L68.41 11.96L69.48 11.16L70.65 10.5L71.92 10.02L73.27 9.72L74.68 9.62L76.09 9.72L77.44 10.02L78.71 10.5Z"
       id="b1y0OSTxw7" />
    <path
       d="M78.71 10.5L79.88 11.16L80.95 11.96L81.89 12.9L82.69 13.97L83.34 15.14L83.82 16.41L84.12 17.76L84.23 19.17L84.12 20.58L83.82 21.93L83.34 23.2L82.69 24.37L81.89 25.44L80.95 26.38L79.88 27.18L78.71 27.83L77.44 28.32L76.09 28.62L74.68 28.72L73.27 28.62L71.92 28.32L70.65 27.83L69.48 27.18L68.41 26.38L67.47 25.44L66.67 24.37L66.02 23.2L65.53 21.93L65.23 20.58L65.13 19.17L65.23 17.76L65.53 16.41L66.02 15.14L66.67 13.97L67.47 12.9L68.41 11.96L69.48 11.16L70.65 10.5L71.92 10.02L73.27 9.72L74.68 9.62L76.09 9.72L77.44 10.02L78.71 10.5Z"
       id="fjAo7ASU" />
    <path
       d="M23.24 0.42L24.52 0.74L25.76 1.15L26.96 1.63L28.12 2.19L29.24 2.83L30.31 3.54L31.32 4.31L32.28 5.15L33.18 6.06L34.02 7.02L34.8 8.03L35.51 9.1L36.14 10.21L36.71 11.37L37.19 12.58L37.59 13.82L37.91 15.09L38.15 16.4L38.29 17.74L38.34 19.1L38.29 20.47L38.15 21.8L37.91 23.11L37.59 24.39L37.19 25.63L36.71 26.83L36.14 27.99L35.51 29.11L34.8 30.17L34.02 31.19L33.18 32.15L32.28 33.05L31.32 33.89L30.31 34.67L29.24 35.37L28.12 36.01L26.96 36.57L25.76 37.06L24.52 37.46L23.24 37.78L21.93 38.01L20.6 38.15L19.23 38.2L17.87 38.15L16.53 38.01L15.22 37.78L13.95 37.46L12.71 37.06L11.5 36.57L10.34 36.01L9.23 35.37L8.16 34.67L7.15 33.89L6.19 33.05L5.29 32.15L4.45 31.19L3.67 30.17L2.96 29.11L2.33 27.99L1.76 26.83L1.28 25.63L0.88 24.39L0.56 23.11L0.32 21.8L0.18 20.47L0.13 19.1L0.18 17.74L0.32 16.4L0.56 15.09L0.88 13.82L1.28 12.58L1.76 11.37L2.33 10.21L2.96 9.1L3.67 8.03L4.45 7.02L5.29 6.06L6.19 5.15L7.15 4.31L8.16 3.54L9.23 2.83L10.34 2.19L11.5 1.63L12.71 1.15L13.95 0.74L15.22 0.42L16.53 0.19L17.87 0.05L19.23 0L20.6 0.05L21.93 0.19L23.24 0.42Z"
       id="a3TJKzBsXQ" />
    <path
       d="M23.24 0.42L24.52 0.74L25.76 1.15L26.96 1.63L28.12 2.19L29.24 2.83L30.31 3.54L31.32 4.31L32.28 5.15L33.18 6.06L34.02 7.02L34.8 8.03L35.51 9.1L36.14 10.21L36.71 11.37L37.19 12.58L37.59 13.82L37.91 15.09L38.15 16.4L38.29 17.74L38.34 19.1L38.29 20.47L38.15 21.8L37.91 23.11L37.59 24.39L37.19 25.63L36.71 26.83L36.14 27.99L35.51 29.11L34.8 30.17L34.02 31.19L33.18 32.15L32.28 33.05L31.32 33.89L30.31 34.67L29.24 35.37L28.12 36.01L26.96 36.57L25.76 37.06L24.52 37.46L23.24 37.78L21.93 38.01L20.6 38.15L19.23 38.2L17.87 38.15L16.53 38.01L15.22 37.78L13.95 37.46L12.71 37.06L11.5 36.57L10.34 36.01L9.23 35.37L8.16 34.67L7.15 33.89L6.19 33.05L5.29 32.15L4.45 31.19L3.67 30.17L2.96 29.11L2.33 27.99L1.76 26.83L1.28 25.63L0.88 24.39L0.56 23.11L0.32 21.8L0.18 20.47L0.13 19.1L0.18 17.74L0.32 16.4L0.56 15.09L0.88 13.82L1.28 12.58L1.76 11.37L2.33 10.21L2.96 9.1L3.67 8.03L4.45 7.02L5.29 6.06L6.19 5.15L7.15 4.31L8.16 3.54L9.23 2.83L10.34 2.19L11.5 1.63L12.71 1.15L13.95 0.74L15.22 0.42L16.53 0.19L17.87 0.05L19.23 0L20.6 0.05L21.93 0.19L23.24 0.42Z"
       id="b1Uxr92gOE" />
    <path
       d="M23.46 10.11L24.64 10.76L25.7 11.56L26.64 12.5L27.45 13.57L28.1 14.74L28.58 16.01L28.88 17.36L28.98 18.77L28.88 20.18L28.58 21.53L28.1 22.8L27.45 23.97L26.64 25.04L25.7 25.98L24.64 26.78L23.46 27.43L22.19 27.92L20.85 28.22L19.44 28.32L18.02 28.22L16.67 27.92L15.41 27.43L14.23 26.78L13.17 25.98L12.22 25.04L11.42 23.97L10.77 22.8L10.29 21.53L9.98 20.18L9.88 18.77L9.98 17.36L10.29 16.01L10.77 14.74L11.42 13.57L12.22 12.5L13.17 11.56L14.23 10.76L15.41 10.11L16.67 9.63L18.02 9.33L19.44 9.22L20.85 9.33L22.19 9.63L23.46 10.11Z"
       id="a2KaJ42O2e" />
    <path
       d="M23.46 10.11L24.64 10.76L25.7 11.56L26.64 12.5L27.45 13.57L28.1 14.74L28.58 16.01L28.88 17.36L28.98 18.77L28.88 20.18L28.58 21.53L28.1 22.8L27.45 23.97L26.64 25.04L25.7 25.98L24.64 26.78L23.46 27.43L22.19 27.92L20.85 28.22L19.44 28.32L18.02 28.22L16.67 27.92L15.41 27.43L14.23 26.78L13.17 25.98L12.22 25.04L11.42 23.97L10.77 22.8L10.29 21.53L9.98 20.18L9.88 18.77L9.98 17.36L10.29 16.01L10.77 14.74L11.42 13.57L12.22 12.5L13.17 11.56L14.23 10.76L15.41 10.11L16.67 9.63L18.02 9.33L19.44 9.22L20.85 9.33L22.19 9.63L23.46 10.11Z"
       id="a21R1qxI1s" />
  </defs>
  <g
     id="g1202">
    <g
       id="g1200">
      <g
         id="g1078"
         style="fill:#bb99df;fill-opacity:1">
        <use
           xlink:href="#a1otGd3bkP"
           opacity="1"
           fill="#2b3d4f"
           fill-opacity="1"
           id="use1072"
           style="fill:#bb99df;fill-opacity:1" />
        <g
           id="g1076"
           style="fill:#bb99df;fill-opacity:1">
          <use
             xlink:href="#a1otGd3bkP"
             opacity="1"
             fill-opacity="0"
             stroke="#000000"
             stroke-width="1"
             stroke-opacity="0"
             id="use1074"
             style="fill:#bb99df;fill-opacity:1" />
        </g>
      </g>
      <g
         id="g1086">
        <use
           xlink:href="#huMmgvq0N"
           opacity="1"
           fill="#000000"
           fill-opacity="0"
           id="use1080" />
        <g
           id="g1084">
          <use
             xlink:href="#huMmgvq0N"
             opacity="1"
             fill-opacity="0"
             stroke="#000000"
             stroke-width="1"
             stroke-opacity="0"
             id="use1082" />
        </g>
      </g>
      <g
         id="g1094">
        <use
           xlink:href="#bKuJeaKir"
           opacity="1"
           fill="#ffffff"
           fill-opacity="1"
           id="use1088" />
        <g
           id="g1092">
          <use
             xlink:href="#bKuJeaKir"
             opacity="1"
             fill-opacity="0"
             stroke="#000000"
             stroke-width="1"
             stroke-opacity="0"
             id="use1090" />
        </g>
      </g>
      <g
         id="g1102">
        <use
           xlink:href="#cTAbDTlRj"
           opacity="1"
           fill="#000000"
           fill-opacity="0"
           id="use1096" />
        <g
           id="g1100">
          <use
             xlink:href="#cTAbDTlRj"
             opacity="1"
             fill-opacity="0"
             stroke="#000000"
             stroke-width="1"
             stroke-opacity="0"
             id="use1098" />
        </g>
      </g>
      <g
         id="g1110">
        <use
           xlink:href="#bVCTScxkY"
           opacity="1"
           fill="#2b3d4f"
           fill-opacity="1"
           id="use1104" />
        <g
           id="g1108">
          <use
             xlink:href="#bVCTScxkY"
             opacity="1"
             fill-opacity="0"
             stroke="#000000"
             stroke-width="1"
             stroke-opacity="0"
             id="use1106" />
        </g>
      </g>
      <g
         id="g1118">
        <use
           xlink:href="#a16L9e8jQc"
           opacity="1"
           fill="#000000"
           fill-opacity="0"
           id="use1112" />
        <g
           id="g1116">
          <use
             xlink:href="#a16L9e8jQc"
             opacity="1"
             fill-opacity="0"
             stroke="#000000"
             stroke-width="1"
             stroke-opacity="0"
             id="use1114" />
        </g>
      </g>
      <g
         id="g1126">
        <use
           xlink:href="#b1eNFDlgXm"
           opacity="1"
           fill="#ffffff"
           fill-opacity="1"
           id="use1120" />
        <g
           id="g1124">
          <use
             xlink:href="#b1eNFDlgXm"
             opacity="1"
             fill-opacity="0"
             stroke="#000000"
             stroke-width="1"
             stroke-opacity="0"
             id="use1122" />
        </g>
      </g>
      <g
         id="g1134">
        <use
           xlink:href="#a6qyK68dSg"
           opacity="1"
           fill="#000000"
           fill-opacity="0"
           id="use1128" />
        <g
           id="g1132">
          <use
             xlink:href="#a6qyK68dSg"
             opacity="1"
             fill-opacity="0"
             stroke="#000000"
             stroke-width="1"
             stroke-opacity="0"
             id="use1130" />
        </g>
      </g>
      <g
         id="g1142">
        <use
           xlink:href="#ay1NTEQIN"
           opacity="1"
           fill="#206694"
           fill-opacity="1"
           id="use1136" />
        <g
           id="g1140">
          <use
             xlink:href="#ay1NTEQIN"
             opacity="1"
             fill-opacity="0"
             stroke="#000000"
             stroke-width="1"
             stroke-opacity="0"
             id="use1138" />
        </g>
      </g>
      <g
         id="g1150">
        <use
           xlink:href="#g7rVYPKq9"
           opacity="1"
           fill="#000000"
           fill-opacity="0"
           id="use1144" />
        <g
           id="g1148">
          <use
             xlink:href="#g7rVYPKq9"
             opacity="1"
             fill-opacity="0"
             stroke="#000000"
             stroke-width="1"
             stroke-opacity="0"
             id="use1146" />
        </g>
      </g>
      <g
         id="g1158">
        <use
           xlink:href="#b1y0OSTxw7"
           opacity="1"
           fill="#ffffff"
           fill-opacity="1"
           id="use1152" />
        <g
           id="g1156">
          <use
             xlink:href="#b1y0OSTxw7"
             opacity="1"
             fill-opacity="0"
             stroke="#000000"
             stroke-width="1"
             stroke-opacity="0"
             id="use1154" />
        </g>
      </g>
      <g
         id="g1166">
        <use
           xlink:href="#fjAo7ASU"
           opacity="1"
           fill="#000000"
           fill-opacity="0"
           id="use1160" />
        <g
           id="g1164">
          <use
             xlink:href="#fjAo7ASU"
             opacity="1"
             fill-opacity="0"
             stroke="#000000"
             stroke-width="1"
             stroke-opacity="0"
             id="use1162" />
        </g>
      </g>
      <g
         id="g1174">
        <use
           xlink:href="#a3TJKzBsXQ"
           opacity="1"
           fill="#3397d9"
           fill-opacity="1"
           id="use1168" />
        <g
           id="g1172">
          <use
             xlink:href="#a3TJKzBsXQ"
             opacity="1"
             fill-opacity="0"
             stroke="#000000"
             stroke-width="1"
             stroke-opacity="0"
             id="use1170" />
        </g>
      </g>
      <g
         id="g1182">
        <use
           xlink:href="#b1Uxr92gOE"
           opacity="1"
           fill="#000000"
           fill-opacity="0"
           id="use1176" />
        <g
           id="g1180">
          <use
             xlink:href="#b1Uxr92gOE"
             opacity="1"
             fill-opacity="0"
             stroke="#000000"
             stroke-width="1"
             stroke-opacity="0"
             id="use1178" />
        </g>
      </g>
      <g
         id="g1190">
        <use
           xlink:href="#a2KaJ42O2e"
           opacity="1"
           fill="#ffffff"
           fill-opacity="1"
           id="use1184" />
        <g
           id="g1188">
          <use
             xlink:href="#a2KaJ42O2e"
             opacity="1"
             fill-opacity="0"
             stroke="#000000"
             stroke-width="1"
             stroke-opacity="0"
             id="use1186" />
        </g>
      </g>
      <g
         id="g1198">
        <use
           xlink:href="#a21R1qxI1s"
           opacity="1"
           fill="#000000"
           fill-opacity="0"
           id="use1192" />
        <g
           id="g1196">
          <use
             xlink:href="#a21R1qxI1s"
             opacity="1"
             fill-opacity="0"
             stroke="#000000"
             stroke-width="1"
             stroke-opacity="0"
             id="use1194" />
        </g>
      </g>
    </g>
  </g>
</svg>
