<?xml version="1.0" encoding="UTF-8" standalone="no"?>
<!DOCTYPE svg PUBLIC "-//W3C//DTD SVG 1.1//EN" "http://www.w3.org/Graphics/SVG/1.1/DTD/svg11.dtd">
<svg version="1.1" xmlns="http://www.w3.org/2000/svg" xmlns:xlink="http://www.w3.org/1999/xlink" preserveAspectRatio="xMidYMid meet" viewBox="0 0 1630 89" width="1630" height="89"><defs><path d="M162.22 87.76C270.32 50.35 378.41 12.95 465.17 11.09C551.94 9.24 615.21 76.63 682.8 76.63C750.4 76.63 797.19 13.98 870.75 11.09C944.33 8.21 1046.34 56.65 1124.25 59.32C1202.15 62 1266.44 22.63 1338.17 27.17C1409.89 31.71 1554.56 86.52 1554.56 86.52" id="c1Gg4WAb8j"></path><path d="M1638.56 87.89C1571.79 87.6 1549.74 44.24 1500.07 42.19C1450.4 40.13 1400.34 79.44 1340.58 75.54C1280.81 71.63 1225.37 19.54 1141.5 18.72C1057.64 17.89 917.7 70.6 837.34 70.6C756.96 70.6 713.28 19.95 659.29 18.72C605.29 17.48 579.75 66.27 513.39 63.19C447.03 60.1 345.64 -3.95 261.15 0.19C176.66 4.32 107.62 85.96 6.44 88" id="apEWO62bf"></path></defs><g><g><g><use xlink:href="#c1Gg4WAb8j" opacity="1" fill="#e1f3f8" fill-opacity="1"></use><g><use xlink:href="#c1Gg4WAb8j" opacity="1" fill-opacity="0" stroke="#000000" stroke-width="1" stroke-opacity="0"></use></g></g><g><use xlink:href="#apEWO62bf" opacity="1" fill="#eff9fc" fill-opacity="1"></use><g><use xlink:href="#apEWO62bf" opacity="1" fill-opacity="0" stroke="#000000" stroke-width="1" stroke-opacity="0"></use></g></g></g></g></svg>
