<?xml version="1.0" encoding="UTF-8" standalone="no"?>
<svg
   xmlns:dc="http://purl.org/dc/elements/1.1/"
   xmlns:cc="http://creativecommons.org/ns#"
   xmlns:rdf="http://www.w3.org/1999/02/22-rdf-syntax-ns#"
   xmlns:svg="http://www.w3.org/2000/svg"
   xmlns="http://www.w3.org/2000/svg"
   xmlns:xlink="http://www.w3.org/1999/xlink"
   xmlns:sodipodi="http://sodipodi.sourceforge.net/DTD/sodipodi-0.dtd"
   xmlns:inkscape="http://www.inkscape.org/namespaces/inkscape"
   version="1.1"
   preserveAspectRatio="xMidYMid meet"
   viewBox="0 0 1630 89"
   width="1630"
   height="89"
   id="svg8967"
   sodipodi:docname="waves1.svg"
   inkscape:version="0.92.2 (5c3e80d, 2017-08-06)">
  <metadata
     id="metadata8971">
    <rdf:RDF>
      <cc:Work
         rdf:about="">
        <dc:format>image/svg+xml</dc:format>
        <dc:type
           rdf:resource="http://purl.org/dc/dcmitype/StillImage" />
      </cc:Work>
    </rdf:RDF>
  </metadata>
  <sodipodi:namedview
     pagecolor="#ffffff"
     bordercolor="#666666"
     borderopacity="1"
     objecttolerance="10"
     gridtolerance="10"
     guidetolerance="10"
     inkscape:pageopacity="0"
     inkscape:pageshadow="2"
     inkscape:window-width="1366"
     inkscape:window-height="745"
     id="namedview8969"
     showgrid="false"
     inkscape:zoom="1.46"
     inkscape:cx="1263.7576"
     inkscape:cy="47.783713"
     inkscape:window-x="-8"
     inkscape:window-y="-8"
     inkscape:window-maximized="1"
     inkscape:current-layer="g8963" />
  <defs
     id="defs8945">
    <path
       d="M162.22 87.76C270.32 50.35 378.41 12.95 465.17 11.09C551.94 9.24 615.21 76.63 682.8 76.63C750.4 76.63 797.19 13.98 870.75 11.09C944.33 8.21 1046.34 56.65 1124.25 59.32C1202.15 62 1266.44 22.63 1338.17 27.17C1409.89 31.71 1554.56 86.52 1554.56 86.52"
       id="c1Gg4WAb8j" />
    <path
       d="M1638.56 87.89C1571.79 87.6 1549.74 44.24 1500.07 42.19C1450.4 40.13 1400.34 79.44 1340.58 75.54C1280.81 71.63 1225.37 19.54 1141.5 18.72C1057.64 17.89 917.7 70.6 837.34 70.6C756.96 70.6 713.28 19.95 659.29 18.72C605.29 17.48 579.75 66.27 513.39 63.19C447.03 60.1 345.64 -3.95 261.15 0.19C176.66 4.32 107.62 85.96 6.44 88"
       id="apEWO62bf" />
  </defs>
  <g
     id="g8965">
    <g
       id="g8963">
      <g
         id="g8953"
         transform="matrix(1,0,0,-1,0,98.69888)">
        <use
           xlink:href="#c1Gg4WAb8j"
           id="use8947"
           style="opacity:1;fill:#f7f7f7;fill-opacity:1"
           x="0"
           y="0"
           width="100%"
           height="100%" />
        <g
           id="g8951">
          <use
             xlink:href="#c1Gg4WAb8j"
             id="use8949"
             style="opacity:1;fill-opacity:0;stroke:#000000;stroke-width:1;stroke-opacity:0"
             x="0"
             y="0"
             width="100%"
             height="100%" />
        </g>
      </g>
      <g
         id="g8961"
         transform="matrix(1,0,0,-1,0,87.997392)">
        <use
           xlink:href="#apEWO62bf"
           id="use8955"
           style="opacity:1;fill:#ffffff;fill-opacity:1"
           x="0"
           y="0"
           width="100%"
           height="100%" />
        <g
           id="g8959">
          <use
             xlink:href="#apEWO62bf"
             id="use8957"
             style="opacity:1;fill-opacity:0;stroke:#000000;stroke-width:1;stroke-opacity:0"
             x="0"
             y="0"
             width="100%"
             height="100%" />
        </g>
      </g>
    </g>
  </g>
</svg>
