<?xml version="1.0" encoding="UTF-8" standalone="no"?>
<svg
   xmlns:osb="http://www.openswatchbook.org/uri/2009/osb"
   xmlns:dc="http://purl.org/dc/elements/1.1/"
   xmlns:cc="http://creativecommons.org/ns#"
   xmlns:rdf="http://www.w3.org/1999/02/22-rdf-syntax-ns#"
   xmlns:svg="http://www.w3.org/2000/svg"
   xmlns="http://www.w3.org/2000/svg"
   xmlns:sodipodi="http://sodipodi.sourceforge.net/DTD/sodipodi-0.dtd"
   xmlns:inkscape="http://www.inkscape.org/namespaces/inkscape"
   viewBox="0 0 58.333331 58.333331"
   height="25pt"
   width="25pt"
   version="1.1"
   id="svg4491"
   sodipodi:docname="esowhite.svg"
   inkscape:version="0.92.1 r15371">
  <metadata
     id="metadata4497">
    <rdf:RDF>
      <cc:Work
         rdf:about="">
        <dc:format>image/svg+xml</dc:format>
        <dc:type
           rdf:resource="http://purl.org/dc/dcmitype/StillImage" />
        <dc:title></dc:title>
      </cc:Work>
    </rdf:RDF>
  </metadata>
  <defs
     id="defs4495">
    <linearGradient
       id="linearGradient5967"
       osb:paint="solid">
      <stop
         style="stop-color:#161616;stop-opacity:1;"
         offset="0"
         id="stop5965" />
    </linearGradient>
  </defs>
  <sodipodi:namedview
     pagecolor="#ffffff"
     bordercolor="#666666"
     borderopacity="1"
     objecttolerance="10"
     gridtolerance="10"
     guidetolerance="10"
     inkscape:pageopacity="0"
     inkscape:pageshadow="2"
     inkscape:window-width="1920"
     inkscape:window-height="1017"
     id="namedview4493"
     showgrid="false"
     fit-margin-top="0"
     fit-margin-left="0"
     fit-margin-right="0"
     fit-margin-bottom="0"
     scale-x="1.75"
     inkscape:zoom="8.08"
     inkscape:cx="-7.7094629"
     inkscape:cy="-2.1910923"
     inkscape:window-x="1912"
     inkscape:window-y="-8"
     inkscape:window-maximized="1"
     inkscape:current-layer="svg4491" />
  <g
     id="g20"
     transform="translate(6.2764154,-2.8860422)"
     style="fill:#ffffff;fill-opacity:1">
    <path
       style="fill:#ffffff;fill-opacity:1;fill-rule:nonzero"
       inkscape:connector-curvature="0"
       id="path4487"
       d="m 43.701699,10.843333 c 2.65,4.09 2.27,8.849999 1.55,13.449999 -1.72,8.75 -6.92,15.52 -13.52,21.24 -2.44,-0.65 -4.9,-1.2 -7.36,-1.71 4.39,-4.68 7.99,-9.87 9.55,-16.19 -2.8,-0.67 -5.33,-1.53 -7.34,-3.69 -4.59,-3.91 -4.05,-12.099999 0.41,-15.8899991 4.87,-3.74 13.62,-2.93 16.71,2.7900001 z" />
    <path
       style="fill:#ffffff;fill-opacity:1"
       inkscape:connector-curvature="0"
       id="path4489"
       d="m 15.201699,19.323332 c 4.94,1.24 7.61,6.63 7.2,11.42 -1.08,5.12 -5.47,8.98 -10.66,9.58 1.41,6.4 4.99,11.63 9.43,16.32 -2.32,0.47 -4.59,1.02 -6.86,1.69 -6.6399997,-5.28 -11.8199997,-12.06 -13.59999968,-20.49 -1.06,-5.16 -1.34,-10.62 2.06999998,-15.01 2.85,-3.97 7.9599997,-4.55 12.4199997,-3.51 z" />
  </g>
</svg>
