<?xml version="1.0" encoding="UTF-8" standalone="no"?>
<!DOCTYPE svg PUBLIC "-//W3C//DTD SVG 1.1//EN" "http://www.w3.org/Graphics/SVG/1.1/DTD/svg11.dtd">
<svg version="1.1" xmlns="http://www.w3.org/2000/svg" xmlns:xlink="http://www.w3.org/1999/xlink" preserveAspectRatio="xMidYMid meet" viewBox="0 0 285 311" width="285" height="311"><defs><path d="M85.77 55.71L86.99 55.89L88.2 56.11L89.39 56.38L90.57 56.69L91.72 57.05L92.86 57.46L93.98 57.9L95.07 58.39L96.14 58.92L97.18 59.49L98.2 60.1L99.2 60.74L100.17 61.42L101.11 62.14L102.02 62.89L102.9 63.68L103.76 64.49L104.57 65.34L105.36 66.23L106.11 67.14L106.83 68.08L107.51 69.05L108.15 70.04L108.76 71.07L109.33 72.11L109.86 73.18L110.35 74.27L110.79 75.39L111.2 76.52L111.56 77.68L111.87 78.86L112.14 80.05L112.36 81.26L112.53 82.48L112.66 83.72L112.74 84.98L112.76 86.25L112.76 224.89L112.74 226.16L112.66 227.41L112.53 228.65L112.36 229.88L112.14 231.09L111.87 232.28L111.56 233.45L111.2 234.61L110.79 235.75L110.35 236.86L109.86 237.96L109.33 239.03L108.76 240.07L108.15 241.1L107.51 242.09L106.83 243.06L106.11 244L105.36 244.92L104.57 245.79L103.76 246.64L102.9 247.47L102.02 248.25L101.11 249.01L100.17 249.72L99.2 250.4L98.2 251.05L97.18 251.66L96.14 252.23L95.07 252.75L93.98 253.24L92.86 253.69L91.72 254.09L90.57 254.45L89.39 254.77L88.2 255.04L86.99 255.26L85.77 255.43L84.53 255.56L83.27 255.63L82 255.66L80.73 255.63L79.48 255.56L78.24 255.43L77.02 255.26L75.8 255.04L74.61 254.77L73.44 254.45L72.28 254.09L71.14 253.69L70.02 253.24L68.93 252.75L67.86 252.23L66.82 251.66L65.8 251.05L64.8 250.4L63.83 249.72L62.89 249.01L61.98 248.25L61.1 247.47L60.25 246.64L59.43 245.79L58.64 244.92L57.89 244L57.17 243.06L56.49 242.09L55.84 241.1L55.24 240.07L54.67 239.03L54.14 237.96L53.65 236.86L53.2 235.75L52.8 234.61L52.44 233.45L52.13 232.28L51.86 231.09L51.64 229.88L51.46 228.65L51.34 227.41L51.26 226.16L51.23 224.89L51.23 86.25L51.26 84.98L51.34 83.72L51.46 82.48L51.64 81.26L51.86 80.05L52.13 78.86L52.44 77.68L52.8 76.52L53.2 75.39L53.65 74.27L54.14 73.18L54.67 72.11L55.24 71.07L55.84 70.04L56.49 69.05L57.17 68.08L57.89 67.14L58.64 66.23L59.43 65.34L60.25 64.49L61.1 63.68L61.98 62.89L62.89 62.14L63.83 61.42L64.8 60.74L65.8 60.1L66.82 59.49L67.86 58.92L68.93 58.39L70.02 57.9L71.14 57.46L72.28 57.05L73.44 56.69L74.61 56.38L75.8 56.11L77.02 55.89L78.24 55.71L79.48 55.58L80.73 55.51L82 55.48L83.27 55.51L84.53 55.58L85.77 55.71Z" id="k1KBVbxqOM"></path><path d="M85.77 55.71L86.99 55.89L88.2 56.11L89.39 56.38L90.57 56.69L91.72 57.05L92.86 57.46L93.98 57.9L95.07 58.39L96.14 58.92L97.18 59.49L98.2 60.1L99.2 60.74L100.17 61.42L101.11 62.14L102.02 62.89L102.9 63.68L103.76 64.49L104.57 65.34L105.36 66.23L106.11 67.14L106.83 68.08L107.51 69.05L108.15 70.04L108.76 71.07L109.33 72.11L109.86 73.18L110.35 74.27L110.79 75.39L111.2 76.52L111.56 77.68L111.87 78.86L112.14 80.05L112.36 81.26L112.53 82.48L112.66 83.72L112.74 84.98L112.76 86.25L112.76 224.89L112.74 226.16L112.66 227.41L112.53 228.65L112.36 229.88L112.14 231.09L111.87 232.28L111.56 233.45L111.2 234.61L110.79 235.75L110.35 236.86L109.86 237.96L109.33 239.03L108.76 240.07L108.15 241.1L107.51 242.09L106.83 243.06L106.11 244L105.36 244.92L104.57 245.79L103.76 246.64L102.9 247.47L102.02 248.25L101.11 249.01L100.17 249.72L99.2 250.4L98.2 251.05L97.18 251.66L96.14 252.23L95.07 252.75L93.98 253.24L92.86 253.69L91.72 254.09L90.57 254.45L89.39 254.77L88.2 255.04L86.99 255.26L85.77 255.43L84.53 255.56L83.27 255.63L82 255.66L80.73 255.63L79.48 255.56L78.24 255.43L77.02 255.26L75.8 255.04L74.61 254.77L73.44 254.45L72.28 254.09L71.14 253.69L70.02 253.24L68.93 252.75L67.86 252.23L66.82 251.66L65.8 251.05L64.8 250.4L63.83 249.72L62.89 249.01L61.98 248.25L61.1 247.47L60.25 246.64L59.43 245.79L58.64 244.92L57.89 244L57.17 243.06L56.49 242.09L55.84 241.1L55.24 240.07L54.67 239.03L54.14 237.96L53.65 236.86L53.2 235.75L52.8 234.61L52.44 233.45L52.13 232.28L51.86 231.09L51.64 229.88L51.46 228.65L51.34 227.41L51.26 226.16L51.23 224.89L51.23 86.25L51.26 84.98L51.34 83.72L51.46 82.48L51.64 81.26L51.86 80.05L52.13 78.86L52.44 77.68L52.8 76.52L53.2 75.39L53.65 74.27L54.14 73.18L54.67 72.11L55.24 71.07L55.84 70.04L56.49 69.05L57.17 68.08L57.89 67.14L58.64 66.23L59.43 65.34L60.25 64.49L61.1 63.68L61.98 62.89L62.89 62.14L63.83 61.42L64.8 60.74L65.8 60.1L66.82 59.49L67.86 58.92L68.93 58.39L70.02 57.9L71.14 57.46L72.28 57.05L73.44 56.69L74.61 56.38L75.8 56.11L77.02 55.89L78.24 55.71L79.48 55.58L80.73 55.51L82 55.48L83.27 55.51L84.53 55.58L85.77 55.71Z" id="a8p8r2aMI"></path><path d="M206.77 55.71L207.99 55.89L209.2 56.11L210.39 56.38L211.57 56.69L212.73 57.05L213.86 57.46L214.98 57.9L216.07 58.39L217.14 58.92L218.19 59.49L219.21 60.1L220.21 60.74L221.17 61.42L222.12 62.14L223.03 62.89L223.91 63.68L224.76 64.49L225.58 65.34L226.36 66.23L227.12 67.14L227.83 68.08L228.52 69.05L229.16 70.04L229.77 71.07L230.34 72.11L230.87 73.18L231.35 74.27L231.8 75.39L232.2 76.52L232.56 77.68L232.88 78.86L233.15 80.05L233.37 81.26L233.55 82.48L233.67 83.72L233.75 84.98L233.77 86.25L233.77 224.89L233.75 226.16L233.67 227.41L233.55 228.65L233.37 229.88L233.15 231.09L232.88 232.28L232.56 233.45L232.2 234.61L231.8 235.75L231.35 236.86L230.87 237.96L230.34 239.03L229.77 240.07L229.16 241.1L228.52 242.09L227.83 243.06L227.12 244L226.36 244.92L225.58 245.79L224.76 246.64L223.91 247.47L223.03 248.25L222.12 249.01L221.17 249.72L220.21 250.4L219.21 251.05L218.19 251.66L217.14 252.23L216.07 252.75L214.98 253.24L213.86 253.69L212.73 254.09L211.57 254.45L210.39 254.77L209.2 255.04L207.99 255.26L206.77 255.43L205.52 255.56L204.27 255.63L203 255.66L201.73 255.63L200.48 255.56L199.24 255.43L198.01 255.26L196.8 255.04L195.61 254.77L194.43 254.45L193.28 254.09L192.14 253.69L191.03 253.24L189.94 252.75L188.86 252.23L187.82 251.66L186.8 251.05L185.81 250.4L184.84 249.72L183.9 249.01L182.99 248.25L182.1 247.47L181.25 246.64L180.43 245.79L179.65 244.92L178.89 244L178.17 243.06L177.49 242.09L176.85 241.1L176.24 240.07L175.67 239.03L175.14 237.96L174.66 236.86L174.21 235.75L173.81 234.61L173.45 233.45L173.13 232.28L172.87 231.09L172.64 229.88L172.47 228.65L172.34 227.41L172.26 226.16L172.24 224.89L172.24 86.25L172.26 84.98L172.34 83.72L172.47 82.48L172.64 81.26L172.87 80.05L173.13 78.86L173.45 77.68L173.81 76.52L174.21 75.39L174.66 74.27L175.14 73.18L175.67 72.11L176.24 71.07L176.85 70.04L177.49 69.05L178.17 68.08L178.89 67.14L179.65 66.23L180.43 65.34L181.25 64.49L182.1 63.68L182.99 62.89L183.9 62.14L184.84 61.42L185.81 60.74L186.8 60.1L187.82 59.49L188.86 58.92L189.94 58.39L191.03 57.9L192.14 57.46L193.28 57.05L194.43 56.69L195.61 56.38L196.8 56.11L198.01 55.89L199.24 55.71L200.48 55.58L201.73 55.51L203 55.48L204.27 55.51L205.52 55.58L206.77 55.71Z" id="a2qOzEcY8r"></path><path d="M206.77 55.71L207.99 55.89L209.2 56.11L210.39 56.38L211.57 56.69L212.73 57.05L213.86 57.46L214.98 57.9L216.07 58.39L217.14 58.92L218.19 59.49L219.21 60.1L220.21 60.74L221.17 61.42L222.12 62.14L223.03 62.89L223.91 63.68L224.76 64.49L225.58 65.34L226.36 66.23L227.12 67.14L227.83 68.08L228.52 69.05L229.16 70.04L229.77 71.07L230.34 72.11L230.87 73.18L231.35 74.27L231.8 75.39L232.2 76.52L232.56 77.68L232.88 78.86L233.15 80.05L233.37 81.26L233.55 82.48L233.67 83.72L233.75 84.98L233.77 86.25L233.77 224.89L233.75 226.16L233.67 227.41L233.55 228.65L233.37 229.88L233.15 231.09L232.88 232.28L232.56 233.45L232.2 234.61L231.8 235.75L231.35 236.86L230.87 237.96L230.34 239.03L229.77 240.07L229.16 241.1L228.52 242.09L227.83 243.06L227.12 244L226.36 244.92L225.58 245.79L224.76 246.64L223.91 247.47L223.03 248.25L222.12 249.01L221.17 249.72L220.21 250.4L219.21 251.05L218.19 251.66L217.14 252.23L216.07 252.75L214.98 253.24L213.86 253.69L212.73 254.09L211.57 254.45L210.39 254.77L209.2 255.04L207.99 255.26L206.77 255.43L205.52 255.56L204.27 255.63L203 255.66L201.73 255.63L200.48 255.56L199.24 255.43L198.01 255.26L196.8 255.04L195.61 254.77L194.43 254.45L193.28 254.09L192.14 253.69L191.03 253.24L189.94 252.75L188.86 252.23L187.82 251.66L186.8 251.05L185.81 250.4L184.84 249.72L183.9 249.01L182.99 248.25L182.1 247.47L181.25 246.64L180.43 245.79L179.65 244.92L178.89 244L178.17 243.06L177.49 242.09L176.85 241.1L176.24 240.07L175.67 239.03L175.14 237.96L174.66 236.86L174.21 235.75L173.81 234.61L173.45 233.45L173.13 232.28L172.87 231.09L172.64 229.88L172.47 228.65L172.34 227.41L172.26 226.16L172.24 224.89L172.24 86.25L172.26 84.98L172.34 83.72L172.47 82.48L172.64 81.26L172.87 80.05L173.13 78.86L173.45 77.68L173.81 76.52L174.21 75.39L174.66 74.27L175.14 73.18L175.67 72.11L176.24 71.07L176.85 70.04L177.49 69.05L178.17 68.08L178.89 67.14L179.65 66.23L180.43 65.34L181.25 64.49L182.1 63.68L182.99 62.89L183.9 62.14L184.84 61.42L185.81 60.74L186.8 60.1L187.82 59.49L188.86 58.92L189.94 58.39L191.03 57.9L192.14 57.46L193.28 57.05L194.43 56.69L195.61 56.38L196.8 56.11L198.01 55.89L199.24 55.71L200.48 55.58L201.73 55.51L203 55.48L204.27 55.51L205.52 55.58L206.77 55.71Z" id="aTjdHCBc5"></path><path d="M85.58 55.52L86.75 55.66L87.91 55.86L89.07 56.1L90.23 56.38L91.36 56.7L92.5 57.08L93.61 57.49L94.72 57.95L95.8 58.45L96.87 59L97.92 59.59L98.95 60.23L99.96 60.91L100.95 61.63L101.91 62.4L102.85 63.2L103.76 64.06L104.64 64.95L105.49 65.89L226.19 204.36L227.01 205.33L227.77 206.33L228.49 207.35L229.17 208.39L229.79 209.45L230.38 210.52L230.91 211.62L231.4 212.72L231.84 213.85L232.24 214.98L232.59 216.13L232.89 217.28L233.15 218.44L233.37 219.61L233.53 220.79L233.66 221.97L233.74 223.14L233.77 224.32L233.75 225.51L233.7 226.69L233.59 227.86L233.44 229.04L233.25 230.2L233.02 231.36L232.73 232.51L232.41 233.65L232.03 234.78L231.62 235.9L231.16 237L230.66 238.08L230.11 239.15L229.52 240.2L228.88 241.23L228.2 242.24L227.48 243.23L226.72 244.19L225.91 245.13L225.06 246.04L224.16 246.92L223.22 247.78L222.25 248.59L221.25 249.35L220.23 250.08L219.19 250.75L218.14 251.38L217.06 251.96L215.96 252.5L214.86 252.99L213.74 253.43L212.61 253.82L211.46 254.18L210.31 254.48L209.14 254.74L207.98 254.95L206.8 255.12L205.62 255.24L204.44 255.32L203.26 255.35L202.08 255.34L200.9 255.28L199.72 255.18L198.55 255.03L197.39 254.84L196.23 254.6L195.08 254.32L193.94 253.99L192.8 253.62L191.69 253.2L190.59 252.74L189.5 252.24L188.43 251.69L187.38 251.1L186.35 250.47L185.34 249.79L184.35 249.07L183.39 248.3L182.46 247.49L181.55 246.64L180.66 245.74L179.8 244.8L59.11 106.33L58.29 105.36L57.52 104.36L56.8 103.34L56.13 102.3L55.5 101.25L54.92 100.17L54.39 99.08L53.9 97.97L53.45 96.85L53.06 95.71L52.7 94.57L52.4 93.41L52.14 92.25L51.93 91.08L51.76 89.91L51.64 88.73L51.56 87.55L51.53 86.37L51.55 85.19L51.6 84.01L51.7 82.84L51.85 81.66L52.04 80.49L52.29 79.33L52.57 78.19L52.89 77.04L53.26 75.92L53.68 74.8L54.14 73.7L54.64 72.61L55.19 71.54L55.78 70.5L56.42 69.46L57.1 68.45L57.82 67.47L58.58 66.5L59.39 65.57L60.25 64.66L61.14 63.77L62.08 62.92L63.05 62.1L64.05 61.34L65.07 60.62L66.1 59.94L67.16 59.32L68.24 58.73L69.33 58.2L70.44 57.71L71.56 57.27L72.7 56.87L73.84 56.52L74.99 56.21L76.16 55.96L77.32 55.74L78.5 55.57L79.68 55.45L80.86 55.38L82.04 55.34L83.22 55.36L84.4 55.41L85.58 55.52Z" id="dbOAMGDzh"></path><path d="M85.58 55.52L86.75 55.66L87.91 55.86L89.07 56.1L90.23 56.38L91.36 56.7L92.5 57.08L93.61 57.49L94.72 57.95L95.8 58.45L96.87 59L97.92 59.59L98.95 60.23L99.96 60.91L100.95 61.63L101.91 62.4L102.85 63.2L103.76 64.06L104.64 64.95L105.49 65.89L226.19 204.36L227.01 205.33L227.77 206.33L228.49 207.35L229.17 208.39L229.79 209.45L230.38 210.52L230.91 211.62L231.4 212.72L231.84 213.85L232.24 214.98L232.59 216.13L232.89 217.28L233.15 218.44L233.37 219.61L233.53 220.79L233.66 221.97L233.74 223.14L233.77 224.32L233.75 225.51L233.7 226.69L233.59 227.86L233.44 229.04L233.25 230.2L233.02 231.36L232.73 232.51L232.41 233.65L232.03 234.78L231.62 235.9L231.16 237L230.66 238.08L230.11 239.15L229.52 240.2L228.88 241.23L228.2 242.24L227.48 243.23L226.72 244.19L225.91 245.13L225.06 246.04L224.16 246.92L223.22 247.78L222.25 248.59L221.25 249.35L220.23 250.08L219.19 250.75L218.14 251.38L217.06 251.96L215.96 252.5L214.86 252.99L213.74 253.43L212.61 253.82L211.46 254.18L210.31 254.48L209.14 254.74L207.98 254.95L206.8 255.12L205.62 255.24L204.44 255.32L203.26 255.35L202.08 255.34L200.9 255.28L199.72 255.18L198.55 255.03L197.39 254.84L196.23 254.6L195.08 254.32L193.94 253.99L192.8 253.62L191.69 253.2L190.59 252.74L189.5 252.24L188.43 251.69L187.38 251.1L186.35 250.47L185.34 249.79L184.35 249.07L183.39 248.3L182.46 247.49L181.55 246.64L180.66 245.74L179.8 244.8L59.11 106.33L58.29 105.36L57.52 104.36L56.8 103.34L56.13 102.3L55.5 101.25L54.92 100.17L54.39 99.08L53.9 97.97L53.45 96.85L53.06 95.71L52.7 94.57L52.4 93.41L52.14 92.25L51.93 91.08L51.76 89.91L51.64 88.73L51.56 87.55L51.53 86.37L51.55 85.19L51.6 84.01L51.7 82.84L51.85 81.66L52.04 80.49L52.29 79.33L52.57 78.19L52.89 77.04L53.26 75.92L53.68 74.8L54.14 73.7L54.64 72.61L55.19 71.54L55.78 70.5L56.42 69.46L57.1 68.45L57.82 67.47L58.58 66.5L59.39 65.57L60.25 64.66L61.14 63.77L62.08 62.92L63.05 62.1L64.05 61.34L65.07 60.62L66.1 59.94L67.16 59.32L68.24 58.73L69.33 58.2L70.44 57.71L71.56 57.27L72.7 56.87L73.84 56.52L74.99 56.21L76.16 55.96L77.32 55.74L78.5 55.57L79.68 55.45L80.86 55.38L82.04 55.34L83.22 55.36L84.4 55.41L85.58 55.52Z" id="becVlPbTP"></path></defs><g><g><g><use xlink:href="#k1KBVbxqOM" opacity="1" fill="#0071bc" fill-opacity="1"></use><g><use xlink:href="#k1KBVbxqOM" opacity="1" fill-opacity="0" stroke="#000000" stroke-width="1" stroke-opacity="0"></use></g></g><g><use xlink:href="#a8p8r2aMI" opacity="1" fill="#0071BC" fill-opacity="1"></use><g><use xlink:href="#a8p8r2aMI" opacity="1" fill-opacity="0" stroke="#0071BC" stroke-width="4.5" stroke-opacity="1"></use></g></g><g><use xlink:href="#a2qOzEcY8r" opacity="1" fill="#112e51" fill-opacity="1"></use><g><use xlink:href="#a2qOzEcY8r" opacity="1" fill-opacity="0" stroke="#000000" stroke-width="1" stroke-opacity="0"></use></g></g><g><use xlink:href="#aTjdHCBc5" opacity="1" fill="#112E51" fill-opacity="1"></use><g><use xlink:href="#aTjdHCBc5" opacity="1" fill-opacity="0" stroke="#112E51" stroke-width="4.5" stroke-opacity="1"></use></g></g><g><use xlink:href="#dbOAMGDzh" opacity="1" fill="#205493" fill-opacity="1"></use><g><use xlink:href="#dbOAMGDzh" opacity="1" fill-opacity="0" stroke="#000000" stroke-width="1" stroke-opacity="0"></use></g></g><g><use xlink:href="#becVlPbTP" opacity="1" fill="#205493" fill-opacity="1"></use><g><use xlink:href="#becVlPbTP" opacity="1" fill-opacity="0" stroke="#205493" stroke-width="4.5" stroke-opacity="1"></use></g></g></g></g></svg>
