<?xml version="1.0" encoding="UTF-8" standalone="no"?>
<!DOCTYPE svg PUBLIC "-//W3C//DTD SVG 1.1//EN" "http://www.w3.org/Graphics/SVG/1.1/DTD/svg11.dtd">
<svg version="1.1" xmlns="http://www.w3.org/2000/svg" xmlns:xlink="http://www.w3.org/1999/xlink" preserveAspectRatio="xMidYMid meet" viewBox="0 0 458 500" width="458" height="500"><defs><path d="M86.38 3.57L89.46 3.88L92.5 4.32L95.5 4.87L98.45 5.53L101.37 6.32L104.23 7.21L107.05 8.21L109.81 9.31L112.52 10.52L115.17 11.83L117.76 13.24L120.29 14.75L122.76 16.35L125.16 18.04L127.49 19.82L129.75 21.69L131.93 23.64L134.04 25.67L136.07 27.78L138.02 29.97L139.88 32.23L141.66 34.56L143.35 36.97L144.94 39.43L146.45 41.97L147.86 44.56L149.17 47.22L150.37 49.93L151.48 52.7L152.48 55.52L153.37 58.38L154.15 61.3L154.81 64.26L155.36 67.26L155.8 70.31L156.11 73.38L156.3 76.5L156.36 79.65L156.36 422.83L156.3 425.98L156.11 429.09L155.8 432.17L155.36 435.21L154.81 438.21L154.15 441.16L153.37 444.08L152.48 446.94L151.48 449.76L150.37 452.52L149.17 455.23L147.86 457.88L146.45 460.47L144.94 463.01L143.35 465.47L141.66 467.87L139.88 470.2L138.02 472.46L136.07 474.64L134.04 476.75L131.93 478.78L129.75 480.73L127.49 482.59L125.16 484.37L122.76 486.06L120.29 487.66L117.76 489.16L115.17 490.57L112.52 491.88L109.81 493.08L107.05 494.19L104.23 495.19L101.37 496.08L98.45 496.86L95.5 497.52L92.5 498.07L89.46 498.51L86.38 498.82L83.27 499.01L80.12 499.07L76.98 499.01L73.88 498.82L70.8 498.51L67.77 498.07L64.77 497.52L61.81 496.86L58.9 496.08L56.04 495.19L53.22 494.19L50.46 493.08L47.75 491.88L45.1 490.57L42.51 489.16L39.98 487.66L37.51 486.06L35.11 484.37L32.78 482.59L30.52 480.73L28.34 478.78L26.23 476.75L24.2 474.64L22.25 472.46L20.38 470.2L18.61 467.87L16.92 465.47L15.32 463.01L13.81 460.47L12.4 457.88L11.09 455.23L9.88 452.52L8.78 449.76L7.78 446.94L6.88 444.08L6.1 441.16L5.44 438.21L4.89 435.21L4.45 432.17L4.14 429.09L3.95 425.98L3.89 422.83L3.89 79.65L3.95 76.5L4.14 73.38L4.45 70.31L4.89 67.26L5.44 64.26L6.1 61.3L6.88 58.38L7.78 55.52L8.78 52.7L9.88 49.93L11.09 47.22L12.4 44.56L13.81 41.97L15.32 39.43L16.92 36.97L18.61 34.56L20.38 32.23L22.25 29.97L24.2 27.78L26.23 25.67L28.34 23.64L30.52 21.69L32.78 19.82L35.11 18.04L37.51 16.35L39.98 14.75L42.51 13.24L45.1 11.83L47.75 10.52L50.46 9.31L53.22 8.21L56.04 7.21L58.9 6.32L61.81 5.53L64.77 4.87L67.77 4.32L70.8 3.88L73.88 3.57L76.98 3.38L80.12 3.32L83.27 3.38L86.38 3.57Z" id="mQ46X8IbD"></path><path d="M385.18 2.37L388.26 2.69L391.29 3.12L394.29 3.67L397.25 4.34L400.16 5.12L403.02 6.01L405.84 7.01L408.6 8.12L411.31 9.33L413.96 10.64L416.55 12.05L419.08 13.55L421.55 15.15L423.95 16.84L426.28 18.62L428.54 20.49L430.72 22.44L432.83 24.47L434.86 26.58L436.81 28.77L438.68 31.03L440.45 33.37L442.14 35.77L443.74 38.24L445.25 40.77L446.66 43.37L447.97 46.02L449.18 48.73L450.28 51.5L451.28 54.32L452.18 57.19L452.96 60.1L453.62 63.06L454.17 66.07L454.61 69.11L454.92 72.19L455.11 75.3L455.17 78.45L455.17 421.64L455.11 424.78L454.92 427.89L454.61 430.97L454.17 434.01L453.62 437.01L452.96 439.97L452.18 442.88L451.28 445.75L450.28 448.56L449.18 451.32L447.97 454.03L446.66 456.69L445.25 459.28L443.74 461.81L442.14 464.28L440.45 466.67L438.68 469.01L436.81 471.26L434.86 473.45L432.83 475.56L430.72 477.59L428.54 479.53L426.28 481.4L423.95 483.17L421.55 484.86L419.08 486.46L416.55 487.96L413.96 489.37L411.31 490.68L408.6 491.89L405.84 492.99L403.02 493.99L400.16 494.88L397.25 495.66L394.29 496.33L391.29 496.88L388.26 497.31L385.18 497.62L382.08 497.81L378.94 497.87L375.79 497.81L372.68 497.62L369.6 497.31L366.56 496.88L363.56 496.33L360.61 495.66L357.69 494.88L354.83 493.99L352.01 492.99L349.25 491.89L346.54 490.68L343.89 489.37L341.3 487.96L338.77 486.46L336.3 484.86L333.9 483.17L331.57 481.4L329.31 479.53L327.13 477.59L325.02 475.56L322.99 473.45L321.04 471.26L319.18 469.01L317.4 466.67L315.71 464.28L314.12 461.81L312.61 459.28L311.2 456.69L309.9 454.03L308.69 451.32L307.58 448.56L306.58 445.75L305.69 442.88L304.91 439.97L304.25 437.01L303.7 434.01L303.26 430.97L302.95 427.89L302.76 424.78L302.7 421.64L302.7 78.45L302.76 75.3L302.95 72.19L303.26 69.11L303.7 66.07L304.25 63.06L304.91 60.1L305.69 57.19L306.58 54.32L307.58 51.5L308.69 48.73L309.9 46.02L311.2 43.37L312.61 40.77L314.12 38.24L315.71 35.77L317.4 33.37L319.18 31.03L321.04 28.77L322.99 26.58L325.02 24.47L327.13 22.44L329.31 20.49L331.57 18.62L333.9 16.84L336.3 15.15L338.77 13.55L341.3 12.05L343.89 10.64L346.54 9.33L349.25 8.12L352.01 7.01L354.83 6.01L357.69 5.12L360.61 4.34L363.56 3.67L366.56 3.12L369.6 2.69L372.68 2.37L375.79 2.18L378.94 2.12L382.08 2.18L385.18 2.37Z" id="g19sEMKncD"></path><path d="M85.31 3.44L88.22 3.69L91.13 4.06L94.02 4.54L96.89 5.13L99.74 5.83L102.56 6.64L105.36 7.56L108.13 8.59L110.86 9.73L113.55 10.98L116.2 12.34L118.8 13.81L121.35 15.38L123.85 17.07L126.3 18.86L128.69 20.76L131.01 22.77L133.27 24.89L135.45 27.11L137.57 29.44L436.4 372.26L438.41 374.67L440.32 377.14L442.1 379.67L443.77 382.25L445.33 384.87L446.77 387.54L448.09 390.25L449.31 393L450.4 395.78L451.39 398.59L452.26 401.43L453.01 404.29L453.65 407.17L454.18 410.07L454.6 412.98L454.9 415.9L455.09 418.83L455.17 421.76L455.14 424.68L455 427.61L454.74 430.53L454.37 433.43L453.9 436.32L453.31 439.19L452.61 442.04L451.8 444.87L450.88 447.67L449.85 450.43L448.72 453.16L447.47 455.86L446.11 458.51L444.65 461.11L443.08 463.66L441.39 466.17L439.6 468.61L437.71 471L435.7 473.32L433.59 475.58L431.37 477.77L429.05 479.88L426.64 481.9L424.17 483.8L421.65 485.58L419.08 487.25L416.46 488.81L413.8 490.25L411.09 491.57L408.35 492.78L405.57 493.88L402.77 494.86L399.93 495.73L397.07 496.48L394.2 497.12L391.3 497.65L388.39 498.07L385.48 498.37L382.55 498.56L379.62 498.64L376.7 498.6L373.78 498.46L370.86 498.2L367.96 497.83L365.07 497.35L362.2 496.76L359.35 496.06L356.52 495.24L353.72 494.32L350.96 493.29L348.23 492.15L345.54 490.9L342.89 489.54L340.29 488.07L337.73 486.49L335.23 484.81L332.78 483.02L330.4 481.11L328.07 479.1L325.82 476.99L323.63 474.76L321.52 472.43L22.59 129.65L20.58 127.23L18.67 124.76L16.89 122.24L15.22 119.66L13.66 117.03L12.22 114.36L10.9 111.65L9.69 108.91L8.59 106.13L7.61 103.31L6.74 100.48L5.98 97.62L5.34 94.73L4.81 91.84L4.4 88.93L4.1 86L3.9 83.08L3.83 80.15L3.86 77.22L4.01 74.3L4.26 71.38L4.63 68.48L5.11 65.58L5.7 62.71L6.4 59.86L7.22 57.03L8.14 54.24L9.17 51.47L10.31 48.74L11.56 46.05L12.92 43.4L14.39 40.8L15.97 38.24L17.65 35.74L19.45 33.29L21.35 30.91L23.36 28.58L25.48 26.33L27.71 24.14L30.04 22.03L32.45 20.01L34.91 18.11L37.43 16.32L40 14.65L42.62 13.1L45.29 11.66L47.99 10.33L50.74 9.12L53.51 8.02L56.32 7.04L59.15 6.17L62.01 5.42L64.89 4.77L67.78 4.24L70.69 3.83L73.61 3.53L76.53 3.33L79.46 3.26L82.39 3.29L85.31 3.44Z" id="a5DrsrSITX"></path></defs><g><g><g><use xlink:href="#mQ46X8IbD" opacity="1" fill="#6887ca" fill-opacity="1"></use><g><use xlink:href="#mQ46X8IbD" opacity="1" fill-opacity="0" stroke="#6887ca" stroke-width="4.5" stroke-opacity="1"></use></g></g><g><use xlink:href="#g19sEMKncD" opacity="1" fill="#1b3597" fill-opacity="1"></use><g><use xlink:href="#g19sEMKncD" opacity="1" fill-opacity="0" stroke="#1c3597" stroke-width="4.5" stroke-opacity="1"></use></g></g><g><use xlink:href="#a5DrsrSITX" opacity="1" fill="#4768bd" fill-opacity="1"></use><g><use xlink:href="#a5DrsrSITX" opacity="1" fill-opacity="0" stroke="#4768bd" stroke-width="4.5" stroke-opacity="1"></use></g></g></g></g></svg>