<?xml version="1.0" encoding="UTF-8" standalone="no"?>
<svg
   xmlns:dc="http://purl.org/dc/elements/1.1/"
   xmlns:cc="http://creativecommons.org/ns#"
   xmlns:rdf="http://www.w3.org/1999/02/22-rdf-syntax-ns#"
   xmlns:svg="http://www.w3.org/2000/svg"
   xmlns="http://www.w3.org/2000/svg"
   xmlns:sodipodi="http://sodipodi.sourceforge.net/DTD/sodipodi-0.dtd"
   xmlns:inkscape="http://www.inkscape.org/namespaces/inkscape"
   width="150"
   height="150"
   viewBox="0 0 14.754101 19.047619"
   version="1.1"
   id="svg4494"
   sodipodi:docname="logo.svg"
   inkscape:version="0.92.1 r15371">
  <metadata
     id="metadata4498">
    <rdf:RDF>
      <cc:Work
         rdf:about="">
        <dc:format>image/svg+xml</dc:format>
        <dc:type
           rdf:resource="http://purl.org/dc/dcmitype/StillImage" />
        <dc:title>flame</dc:title>
      </cc:Work>
    </rdf:RDF>
  </metadata>
  <sodipodi:namedview
     pagecolor="#0071bc"
     bordercolor="#666666"
     borderopacity="1"
     objecttolerance="10"
     gridtolerance="10"
     guidetolerance="10"
     inkscape:pageopacity="0"
     inkscape:pageshadow="2"
     inkscape:window-width="1920"
     inkscape:window-height="1017"
     id="namedview4496"
     showgrid="false"
     inkscape:pagecheckerboard="false"
     inkscape:zoom="3.3650794"
     inkscape:cx="61"
     inkscape:cy="63"
     inkscape:window-x="1912"
     inkscape:window-y="-8"
     inkscape:window-maximized="1"
     inkscape:current-layer="svg4494" />
  <!-- Generator: Sketch 40.3 (33839) - http://www.bohemiancoding.com/sketch -->
  <title
     id="title4485">flame</title>
  <desc
     id="desc4487">Created with Sketch.</desc>
  <defs
     id="defs4489" />
  <g
     id="Octicons"
     transform="translate(1.3820604,1.5338095)"
     style="fill:none;fill-rule:evenodd;stroke:none;stroke-width:1">
    <g
       id="flame"
       style="fill:#ffffff">
      <path
         d="M 5.05,0.31 C 5.86,2.48 5.46,3.69 4.53,4.62 3.55,5.67 1.98,6.45 0.9,7.98 c -1.45,2.05 -1.7,6.53 3.53,7.7 -2.2,-1.16 -2.67,-4.52 -0.3,-6.61 -0.61,2.03 0.53,3.33 1.94,2.86 1.39,-0.47 2.3,0.53 2.27,1.67 -0.02,0.78 -0.31,1.44 -1.13,1.81 3.42,-0.59 4.78,-3.42 4.78,-5.56 C 11.99,7.01 9.46,6.63 10.74,4.24 9.22,4.37 8.71,5.37 8.85,6.99 8.94,8.07 7.83,8.79 6.99,8.32 6.32,7.91 6.33,7.13 6.93,6.54 8.18,5.31 8.68,2.45 5.05,0.32 L 5.03,0.3 Z"
         id="Shape"
         inkscape:connector-curvature="0" />
    </g>
  </g>
</svg>
