<?xml version="1.0" encoding="UTF-8" standalone="no"?>
<!DOCTYPE svg PUBLIC "-//W3C//DTD SVG 1.1//EN" "http://www.w3.org/Graphics/SVG/1.1/DTD/svg11.dtd">
<svg version="1.1" xmlns="http://www.w3.org/2000/svg" xmlns:xlink="http://www.w3.org/1999/xlink" preserveAspectRatio="xMidYMid meet" viewBox="0 0 285 311" width="285" height="311"><defs><path d="M53.95 3.35L55.84 3.54L57.71 3.81L59.56 4.15L61.38 4.56L63.18 5.04L64.94 5.59L66.68 6.21L68.38 6.89L70.05 7.63L71.69 8.44L73.28 9.31L74.84 10.24L76.36 11.22L77.84 12.26L79.28 13.36L80.67 14.51L82.02 15.71L83.32 16.96L84.57 18.26L85.77 19.61L86.92 21L88.02 22.44L89.06 23.92L90.04 25.44L90.97 27L91.84 28.59L92.64 30.23L93.39 31.9L94.07 33.6L94.69 35.34L95.24 37.1L95.72 38.9L96.13 40.72L96.47 42.57L96.73 44.44L96.93 46.33L97.04 48.25L97.08 50.19L97.08 261.99L97.04 263.93L96.93 265.85L96.73 267.74L96.47 269.62L96.13 271.47L95.72 273.29L95.24 275.08L94.69 276.85L94.07 278.59L93.39 280.29L92.64 281.96L91.84 283.6L90.97 285.19L90.04 286.76L89.06 288.28L88.02 289.76L86.92 291.19L85.77 292.59L84.57 293.93L83.32 295.23L82.02 296.49L80.67 297.69L79.28 298.84L77.84 299.93L76.36 300.97L74.84 301.96L73.28 302.89L71.69 303.76L70.05 304.56L68.38 305.31L66.68 305.99L64.94 306.61L63.18 307.16L61.38 307.64L59.56 308.05L57.71 308.39L55.84 308.65L53.95 308.85L52.03 308.96L50.09 309L48.15 308.96L46.24 308.85L44.34 308.65L42.47 308.39L40.62 308.05L38.79 307.64L37 307.16L35.23 306.61L33.5 305.99L31.79 305.31L30.12 304.56L28.49 303.76L26.89 302.89L25.33 301.96L23.81 300.97L22.33 299.93L20.89 298.84L19.5 297.69L18.15 296.49L16.85 295.23L15.6 293.93L14.4 292.59L13.25 291.19L12.15 289.76L11.11 288.28L10.12 286.76L9.2 285.19L8.33 283.6L7.52 281.96L6.78 280.29L6.09 278.59L5.48 276.85L4.93 275.08L4.45 273.29L4.04 271.47L3.7 269.62L3.43 267.74L3.24 265.85L3.12 263.93L3.08 261.99L3.08 50.19L3.12 48.25L3.24 46.33L3.43 44.44L3.7 42.57L4.04 40.72L4.45 38.9L4.93 37.1L5.48 35.34L6.09 33.6L6.78 31.9L7.52 30.23L8.33 28.59L9.2 27L10.12 25.44L11.11 23.92L12.15 22.44L13.25 21L14.4 19.61L15.6 18.26L16.85 16.96L18.15 15.71L19.5 14.51L20.89 13.36L22.33 12.26L23.81 11.22L25.33 10.24L26.89 9.31L28.49 8.44L30.12 7.63L31.79 6.89L33.5 6.21L35.23 5.59L37 5.04L38.79 4.56L40.62 4.15L42.47 3.81L44.34 3.54L46.24 3.35L48.15 3.23L50.09 3.19L52.03 3.23L53.95 3.35Z" id="eD8v2rvTB"></path><path d="M238.79 3.35L240.69 3.54L242.56 3.81L244.41 4.15L246.23 4.56L248.03 5.04L249.8 5.59L251.53 6.21L253.23 6.89L254.9 7.63L256.54 8.44L258.14 9.31L259.7 10.24L261.22 11.22L262.7 12.26L264.14 13.36L265.53 14.51L266.88 15.71L268.18 16.96L269.43 18.26L270.63 19.61L271.78 21L272.87 22.44L273.92 23.92L274.9 25.44L275.83 27L276.7 28.59L277.51 30.23L278.25 31.9L278.93 33.6L279.55 35.34L280.1 37.1L280.58 38.9L280.99 40.72L281.33 42.57L281.6 44.44L281.79 46.33L281.91 48.25L281.94 50.19L281.94 261.99L281.91 263.93L281.79 265.85L281.6 267.74L281.33 269.62L280.99 271.47L280.58 273.29L280.1 275.08L279.55 276.85L278.93 278.59L278.25 280.29L277.51 281.96L276.7 283.6L275.83 285.19L274.9 286.76L273.92 288.28L272.87 289.76L271.78 291.19L270.63 292.59L269.43 293.93L268.18 295.23L266.88 296.49L265.53 297.69L264.14 298.84L262.7 299.93L261.22 300.97L259.7 301.96L258.14 302.89L256.54 303.76L254.9 304.56L253.23 305.31L251.53 305.99L249.8 306.61L248.03 307.16L246.23 307.64L244.41 308.05L242.56 308.39L240.69 308.65L238.79 308.85L236.88 308.96L234.94 309L233 308.96L231.08 308.85L229.19 308.65L227.32 308.39L225.47 308.05L223.65 307.64L221.85 307.16L220.09 306.61L218.35 305.99L216.65 305.31L214.98 304.56L213.34 303.76L211.75 302.89L210.19 301.96L208.67 300.97L207.19 299.93L205.75 298.84L204.36 297.69L203.01 296.49L201.71 295.23L200.46 293.93L199.26 292.59L198.11 291.19L197.01 289.76L195.97 288.28L194.99 286.76L194.06 285.19L193.19 283.6L192.38 281.96L191.64 280.29L190.96 278.59L190.34 276.85L189.79 275.08L189.31 273.29L188.9 271.47L188.56 269.62L188.29 267.74L188.1 265.85L187.98 263.93L187.94 261.99L187.94 50.19L187.98 48.25L188.1 46.33L188.29 44.44L188.56 42.57L188.9 40.72L189.31 38.9L189.79 37.1L190.34 35.34L190.96 33.6L191.64 31.9L192.38 30.23L193.19 28.59L194.06 27L194.99 25.44L195.97 23.92L197.01 22.44L198.11 21L199.26 19.61L200.46 18.26L201.71 16.96L203.01 15.71L204.36 14.51L205.75 13.36L207.19 12.26L208.67 11.22L210.19 10.24L211.75 9.31L213.34 8.44L214.98 7.63L216.65 6.89L218.35 6.21L220.09 5.59L221.85 5.04L223.65 4.56L225.47 4.15L227.32 3.81L229.19 3.54L231.08 3.35L233 3.23L234.94 3.19L236.88 3.23L238.79 3.35Z" id="c5Prj1Qi1T"></path><path d="M53.75 3.09L55.55 3.25L57.34 3.47L59.12 3.77L60.89 4.13L62.65 4.56L64.39 5.06L66.12 5.63L67.82 6.26L69.51 6.96L71.17 7.73L72.8 8.57L74.4 9.47L75.98 10.44L77.52 11.48L79.03 12.59L80.5 13.76L81.93 14.99L83.32 16.3L84.67 17.66L85.97 19.1L270.37 230.64L271.61 232.12L272.78 233.65L273.88 235.2L274.91 236.79L275.87 238.41L276.76 240.05L277.57 241.72L278.32 243.41L279 245.13L279.6 246.86L280.14 248.61L280.6 250.37L281 252.15L281.33 253.93L281.58 255.73L281.77 257.53L281.89 259.33L281.94 261.13L281.92 262.94L281.83 264.74L281.67 266.54L281.44 268.33L281.15 270.11L280.79 271.88L280.36 273.64L279.86 275.38L279.29 277.1L278.66 278.81L277.96 280.49L277.19 282.15L276.35 283.78L275.45 285.39L274.48 286.96L273.44 288.5L272.34 290.01L271.17 291.48L269.93 292.92L268.63 294.31L267.26 295.65L265.82 296.96L264.34 298.2L262.82 299.37L261.26 300.48L259.67 301.51L258.06 302.46L256.41 303.35L254.74 304.17L253.05 304.92L251.34 305.59L249.61 306.2L247.86 306.74L246.1 307.2L244.32 307.6L242.54 307.92L240.74 308.18L238.94 308.37L237.14 308.49L235.33 308.53L233.53 308.51L231.73 308.42L229.93 308.27L228.14 308.04L226.36 307.75L224.59 307.38L222.83 306.95L221.09 306.45L219.36 305.89L217.66 305.25L215.97 304.55L214.31 303.78L212.68 302.94L211.08 302.04L209.5 301.07L207.96 300.03L206.45 298.93L204.98 297.76L203.55 296.52L202.16 295.22L200.81 293.85L199.5 292.41L15.11 80.88L13.86 79.39L12.69 77.87L11.59 76.31L10.56 74.72L9.6 73.11L8.71 71.46L7.9 69.79L7.15 68.1L6.47 66.39L5.87 64.65L5.33 62.9L4.87 61.14L4.47 59.37L4.15 57.58L3.89 55.79L3.7 53.99L3.58 52.18L3.54 50.38L3.56 48.57L3.64 46.77L3.8 44.98L4.03 43.18L4.32 41.4L4.69 39.63L5.12 37.88L5.62 36.13L6.18 34.41L6.82 32.71L7.52 31.02L8.29 29.36L9.12 27.73L10.03 26.13L11 24.55L12.04 23.01L13.14 21.5L14.31 20.03L15.55 18.6L16.85 17.21L18.22 15.86L19.65 14.56L21.14 13.31L22.66 12.14L24.22 11.04L25.8 10.01L27.42 9.05L29.07 8.16L30.73 7.34L32.43 6.6L34.14 5.92L35.87 5.31L37.62 4.78L39.38 4.31L41.16 3.92L42.94 3.59L44.74 3.33L46.54 3.15L48.34 3.03L50.15 2.98L51.95 3L53.75 3.09Z" id="a7jRw3azfy"></path></defs><g><g><g><use xlink:href="#eD8v2rvTB" opacity="1" fill="#e31c3d" fill-opacity="1"></use><g><use xlink:href="#eD8v2rvTB" opacity="1" fill-opacity="0" stroke="#e31c3d" stroke-width="4.5" stroke-opacity="1"></use></g></g><g><use xlink:href="#c5Prj1Qi1T" opacity="1" fill="#981b1e" fill-opacity="1"></use><g><use xlink:href="#c5Prj1Qi1T" opacity="1" fill-opacity="0" stroke="#981b1e" stroke-width="4.5" stroke-opacity="1"></use></g></g><g><use xlink:href="#a7jRw3azfy" opacity="1" fill="#cd2026" fill-opacity="1"></use><g><use xlink:href="#a7jRw3azfy" opacity="1" fill-opacity="0" stroke="#cd2026" stroke-width="4.5" stroke-opacity="1"></use></g></g></g></g></svg>