<?xml version="1.0" encoding="UTF-8" standalone="no"?>
<svg
   xmlns:dc="http://purl.org/dc/elements/1.1/"
   xmlns:cc="http://creativecommons.org/ns#"
   xmlns:rdf="http://www.w3.org/1999/02/22-rdf-syntax-ns#"
   xmlns:svg="http://www.w3.org/2000/svg"
   xmlns="http://www.w3.org/2000/svg"
   xmlns:sodipodi="http://sodipodi.sourceforge.net/DTD/sodipodi-0.dtd"
   xmlns:inkscape="http://www.inkscape.org/namespaces/inkscape"
   viewBox="0 0 600 600"
   height="600.0pt"
   width="600.0pt"
   version="1.1"
   id="svg36"
   sodipodi:docname="sammy.svg"
   inkscape:version="0.92.1 r15371">
  <metadata
     id="metadata42">
    <rdf:RDF>
      <cc:Work
         rdf:about="">
        <dc:format>image/svg+xml</dc:format>
        <dc:type
           rdf:resource="http://purl.org/dc/dcmitype/StillImage" />
        <dc:title></dc:title>
      </cc:Work>
    </rdf:RDF>
  </metadata>
  <defs
     id="defs40" />
  <sodipodi:namedview
     pagecolor="#ffffff"
     bordercolor="#666666"
     borderopacity="1"
     objecttolerance="10"
     gridtolerance="10"
     guidetolerance="10"
     inkscape:pageopacity="0"
     inkscape:pageshadow="2"
     inkscape:window-width="1054"
     inkscape:window-height="696"
     id="namedview38"
     showgrid="false"
     inkscape:zoom="0.59"
     inkscape:cx="400"
     inkscape:cy="400"
     inkscape:window-x="774"
     inkscape:window-y="176"
     inkscape:window-maximized="0"
     inkscape:current-layer="svg36" />
  <path
     d="M 109.00 116.96 C 132.86 115.83 157.74 119.42 181.15 123.90 C 212.45 129.98 243.43 137.92 274.02 146.89 C 293.06 152.53 311.92 158.54 330.52 165.51 C 362.58 177.65 394.69 189.68 426.73 201.90 C 444.81 184.33 465.75 170.44 488.33 159.33 C 517.26 144.64 548.77 133.17 580.84 127.88 C 587.20 126.82 593.60 126.41 600.00 125.70 L 600.00 185.51 C 593.41 194.41 588.08 203.90 583.47 213.95 C 566.23 209.68 547.68 209.07 530.00 208.16 C 511.02 207.65 491.88 208.72 473.01 210.83 C 467.64 211.49 462.28 212.28 456.97 213.40 C 471.39 219.68 486.27 224.88 500.59 231.40 C 522.12 240.78 542.97 251.53 563.96 262.03 C 564.67 261.76 565.37 261.49 566.07 261.23 L 565.63 262.95 C 577.02 269.06 588.64 274.79 600.00 280.95 L 600.00 334.09 C 590.30 331.10 580.53 328.42 570.90 325.18 C 563.12 322.56 555.30 320.72 547.40 318.51 C 511.63 308.53 476.43 297.21 441.10 285.87 C 438.83 285.09 436.63 284.15 434.43 283.21 C 436.37 274.76 437.54 266.20 438.05 257.55 C 436.07 257.55 434.09 257.54 432.10 257.55 C 431.61 265.62 430.47 273.47 428.68 281.35 C 423.77 280.28 419.07 278.65 414.38 276.90 C 416.18 268.51 417.56 260.06 417.81 251.46 C 415.93 251.46 414.05 251.44 412.19 251.50 C 411.20 259.46 410.44 267.38 408.56 275.21 C 404.14 273.16 398.04 272.73 394.53 269.31 C 396.28 261.34 397.40 253.43 397.79 245.28 C 395.85 245.25 393.92 245.23 391.99 245.21 C 391.31 252.95 390.35 260.65 388.65 268.25 C 386.11 267.51 383.58 266.77 381.07 265.93 C 364.31 260.23 347.48 254.74 330.78 248.87 C 329.12 236.62 323.52 224.99 314.76 216.24 C 304.39 205.78 289.74 199.85 275.01 200.12 C 260.36 200.25 246.23 206.51 235.88 216.79 C 232.29 214.77 228.82 213.35 224.87 212.18 C 173.53 194.38 122.34 175.91 71.09 157.92 C 70.12 157.61 69.14 157.30 68.16 157.00 C 67.87 150.70 67.53 143.83 69.59 137.80 C 71.63 131.38 75.94 126.06 81.87 122.84 C 89.76 118.41 100.12 117.50 109.00 116.96 Z"
     fill="#1f9aff"
     id="path4" />
  <path
     d="M 68.16 157.00 C 69.14 157.30 70.12 157.61 71.09 157.92 C 122.34 175.91 173.53 194.38 224.87 212.18 C 228.82 213.35 232.29 214.77 235.88 216.79 C 227.03 225.76 221.20 237.50 219.54 250.00 C 217.46 264.68 221.24 280.05 230.07 291.97 C 237.93 302.79 249.90 310.52 263.00 313.23 C 276.23 316.15 290.34 313.80 302.08 307.12 C 312.56 301.20 321.02 291.93 325.97 280.96 C 330.52 270.96 332.20 259.77 330.78 248.87 C 347.48 254.74 364.31 260.23 381.07 265.93 C 383.58 266.77 386.11 267.51 388.65 268.25 C 384.40 288.07 376.92 306.76 367.82 324.82 C 369.58 325.67 371.33 326.52 373.09 327.37 C 382.64 309.09 390.25 289.52 394.53 269.31 C 398.04 272.73 404.14 273.16 408.56 275.21 C 404.25 294.67 396.97 313.09 387.91 330.80 C 389.65 331.69 391.39 332.59 393.14 333.48 C 402.58 315.69 409.86 296.54 414.38 276.90 C 419.07 278.65 423.77 280.28 428.68 281.35 C 424.36 300.77 417.09 319.16 408.08 336.86 C 409.79 337.76 411.49 338.66 413.20 339.56 C 422.67 322.02 429.96 302.63 434.43 283.21 C 436.63 284.15 438.83 285.09 441.10 285.87 C 476.43 297.21 511.63 308.53 547.40 318.51 C 555.30 320.72 563.12 322.56 570.90 325.18 C 580.53 328.42 590.30 331.10 600.00 334.09 L 600.00 417.41 C 571.77 434.88 548.15 456.78 520.27 475.25 C 515.03 478.82 509.74 482.24 503.97 484.90 C 499.74 478.28 496.72 471.73 494.60 464.16 C 484.09 463.67 473.27 464.42 463.08 467.12 C 456.27 469.05 449.07 472.17 445.96 479.01 C 443.27 485.71 445.53 493.04 448.97 499.02 C 452.70 505.85 458.13 511.03 464.08 515.90 C 487.24 535.41 514.92 549.68 544.01 557.96 C 555.29 560.99 567.26 563.76 579.00 563.07 C 583.86 562.85 588.12 561.34 592.75 560.05 C 591.21 562.70 589.47 565.14 586.88 566.86 C 579.83 571.68 571.38 573.03 563.00 573.03 C 551.13 573.32 539.70 571.43 528.18 568.72 C 511.83 564.82 495.86 559.28 480.48 552.49 C 466.23 546.05 452.17 537.88 440.45 527.45 C 431.56 519.39 423.03 509.25 419.78 497.48 C 417.49 486.88 420.05 476.28 424.05 466.44 C 389.94 446.09 358.06 421.61 330.27 393.19 C 335.63 383.37 341.10 372.19 342.65 361.02 C 343.26 355.95 343.52 349.67 340.89 345.09 C 338.85 341.54 334.99 339.94 331.01 339.95 C 325.27 339.86 320.52 342.71 316.26 346.26 C 308.58 352.87 299.94 358.54 291.11 363.48 C 266.08 345.81 240.12 329.69 213.50 314.53 C 182.70 297.03 151.10 280.71 118.76 266.25 C 115.36 264.67 111.88 263.30 108.39 261.95 C 105.62 258.47 104.33 254.69 102.26 250.76 C 93.78 234.02 85.34 216.73 78.64 199.19 C 73.57 185.69 69.18 171.45 68.16 157.00 Z"
     fill="#1289ff"
     id="path6" />
  <path
     d="M 275.01 200.12 C 289.74 199.85 304.39 205.78 314.76 216.24 C 323.52 224.99 329.12 236.62 330.78 248.87 C 332.20 259.77 330.52 270.96 325.97 280.96 C 321.02 291.93 312.56 301.20 302.08 307.12 C 290.34 313.80 276.23 316.15 263.00 313.23 C 249.90 310.52 237.93 302.79 230.07 291.97 C 221.24 280.05 217.46 264.68 219.54 250.00 C 221.20 237.50 227.03 225.76 235.88 216.79 C 246.23 206.51 260.36 200.25 275.01 200.12 Z"
     fill="#ffffff"
     id="path10" />
  <path
     d="M 260.49 208.63 C 266.43 207.26 272.48 207.23 278.44 208.52 C 293.40 211.65 305.62 223.73 309.32 238.50 C 313.41 253.80 308.35 270.95 296.43 281.42 C 283.72 293.06 264.07 295.50 249.01 287.00 C 232.85 278.22 224.60 258.80 228.76 240.98 C 232.15 225.13 244.66 212.24 260.49 208.63 Z"
     fill="#ffde3a"
     id="path12" />
  <path
     d="M 530.00 208.16 C 547.68 209.07 566.23 209.68 583.47 213.95 C 576.67 229.29 571.16 245.25 566.07 261.23 C 565.37 261.49 564.67 261.76 563.96 262.03 C 542.97 251.53 522.12 240.78 500.59 231.40 C 486.27 224.88 471.39 219.68 456.97 213.40 C 462.28 212.28 467.64 211.49 473.01 210.83 C 491.88 208.72 511.02 207.65 530.00 208.16 Z"
     fill="#1289ff"
     id="path14" />
  <path
     d="M 258.49 217.62 C 270.97 214.41 284.35 220.07 290.82 231.18 C 298.04 243.30 295.64 259.70 285.21 269.21 C 275.82 278.17 261.02 279.87 249.90 273.14 C 239.32 266.80 233.81 254.06 236.07 241.97 C 238.04 230.26 246.92 220.48 258.49 217.62 Z"
     fill="#443f74"
     id="path16" />
  <path
     d="M 255.42 225.47 C 258.95 224.18 263.11 225.80 264.81 229.15 C 266.16 232.15 265.76 235.98 263.29 238.30 C 259.84 241.52 253.70 240.84 251.37 236.60 C 248.97 232.46 250.82 227.01 255.42 225.47 Z"
     fill="#ffffff"
     id="path18" />
  <path
     d="M 391.99 245.21 C 393.92 245.23 395.85 245.25 397.79 245.28 C 397.40 253.43 396.28 261.34 394.53 269.31 C 390.25 289.52 382.64 309.09 373.09 327.37 C 371.33 326.52 369.58 325.67 367.82 324.82 C 376.92 306.76 384.40 288.07 388.65 268.25 C 390.35 260.65 391.31 252.95 391.99 245.21 Z"
     fill="#3f42a7"
     id="path20" />
  <path
     d="M 412.19 251.50 C 414.05 251.44 415.93 251.46 417.81 251.46 C 417.56 260.06 416.18 268.51 414.38 276.90 C 409.86 296.54 402.58 315.69 393.14 333.48 C 391.39 332.59 389.65 331.69 387.91 330.80 C 396.97 313.09 404.25 294.67 408.56 275.21 C 410.44 267.38 411.20 259.46 412.19 251.50 Z"
     fill="#3f42a7"
     id="path22" />
  <path
     d="M 432.10 257.55 C 434.09 257.54 436.07 257.55 438.05 257.55 C 437.54 266.20 436.37 274.76 434.43 283.21 C 429.96 302.63 422.67 322.02 413.20 339.56 C 411.49 338.66 409.79 337.76 408.08 336.86 C 417.09 319.16 424.36 300.77 428.68 281.35 C 430.47 273.47 431.61 265.62 432.10 257.55 Z"
     fill="#3f42a7"
     id="path24" />
  <path
     d="M 108.39 261.95 C 111.88 263.30 115.36 264.67 118.76 266.25 C 151.10 280.71 182.70 297.03 213.50 314.53 C 240.12 329.69 266.08 345.81 291.11 363.48 C 259.63 381.07 221.19 385.06 186.73 374.44 C 182.30 379.56 178.61 385.01 173.70 389.70 C 167.30 395.74 160.28 401.22 152.69 405.70 C 148.51 408.32 144.36 410.50 142.14 415.16 C 139.58 420.23 140.76 426.28 144.82 430.17 C 149.08 434.16 154.32 437.22 159.35 440.15 C 175.68 449.38 193.38 454.34 211.83 457.22 C 231.27 460.35 250.78 459.88 269.15 452.20 C 285.08 445.43 299.39 434.52 310.43 421.21 C 314.05 417.15 317.55 413.02 320.61 408.52 C 324.04 403.56 327.27 398.42 330.27 393.19 C 358.06 421.61 389.94 446.09 424.05 466.44 C 420.05 476.28 417.49 486.88 419.78 497.48 C 423.03 509.25 431.56 519.39 440.45 527.45 C 419.46 538.10 396.42 544.73 373.00 547.02 C 343.32 550.12 314.13 545.94 285.70 537.36 C 261.03 529.98 237.29 520.06 215.17 506.82 C 197.35 496.89 180.47 485.32 164.99 472.03 C 155.32 463.56 145.79 454.15 138.51 443.51 C 134.08 436.77 129.74 430.31 129.08 422.01 C 128.50 415.56 131.26 409.31 135.96 404.95 C 141.01 400.18 147.30 398.38 153.35 394.32 C 162.45 388.26 171.10 380.61 177.06 371.37 C 158.50 363.69 141.26 353.10 126.18 339.83 C 124.11 337.99 121.71 336.18 120.11 333.90 C 120.18 329.58 121.62 325.36 121.86 321.01 C 122.87 308.02 119.34 296.42 115.76 284.14 C 113.67 276.61 110.68 269.41 108.39 261.95 Z"
     fill="#deebeb"
     id="path26" />
  <path
     d="M 331.01 339.95 C 334.99 339.94 338.85 341.54 340.89 345.09 C 343.52 349.67 343.26 355.95 342.65 361.02 C 341.10 372.19 335.63 383.37 330.27 393.19 C 327.27 398.42 324.04 403.56 320.61 408.52 C 308.21 407.05 295.46 407.63 283.00 408.00 C 247.40 409.77 211.83 417.16 178.88 430.87 C 172.22 433.69 165.62 436.53 159.35 440.15 C 154.32 437.22 149.08 434.16 144.82 430.17 C 140.76 426.28 139.58 420.23 142.14 415.16 C 144.36 410.50 148.51 408.32 152.69 405.70 C 160.28 401.22 167.30 395.74 173.70 389.70 C 178.61 385.01 182.30 379.56 186.73 374.44 C 221.19 385.06 259.63 381.07 291.11 363.48 C 299.94 358.54 308.58 352.87 316.26 346.26 C 320.52 342.71 325.27 339.86 331.01 339.95 Z"
     fill="#fc90c5"
     id="path28" />
  <path
     d="M 283.00 408.00 C 295.46 407.63 308.21 407.05 320.61 408.52 C 317.55 413.02 314.05 417.15 310.43 421.21 C 305.49 417.72 299.26 412.85 293.00 412.68 C 290.24 412.51 288.44 413.79 286.93 415.95 C 282.88 421.73 281.46 429.46 280.11 436.26 C 274.82 432.27 268.98 427.34 262.54 425.48 C 259.75 424.82 256.87 424.39 254.67 426.66 C 250.38 430.91 248.80 438.16 247.18 443.79 C 241.22 439.13 233.77 432.56 226.02 431.72 C 222.60 431.26 220.41 432.88 218.55 435.53 C 214.37 441.59 212.96 450.07 211.83 457.22 C 193.38 454.34 175.68 449.38 159.35 440.15 C 165.62 436.53 172.22 433.69 178.88 430.87 C 211.83 417.16 247.40 409.77 283.00 408.00 Z"
     fill="#eb65a7"
     id="path30" />
  <path
     d="M 293.00 412.68 C 299.26 412.85 305.49 417.72 310.43 421.21 C 299.39 434.52 285.08 445.43 269.15 452.20 C 250.78 459.88 231.27 460.35 211.83 457.22 C 212.96 450.07 214.37 441.59 218.55 435.53 C 220.41 432.88 222.60 431.26 226.02 431.72 C 233.77 432.56 241.22 439.13 247.18 443.79 C 248.80 438.16 250.38 430.91 254.67 426.66 C 256.87 424.39 259.75 424.82 262.54 425.48 C 268.98 427.34 274.82 432.27 280.11 436.26 C 281.46 429.46 282.88 421.73 286.93 415.95 C 288.44 413.79 290.24 412.51 293.00 412.68 Z"
     fill="#ffffff"
     id="path32" />
  <path
     d="M 494.60 464.16 C 496.72 471.73 499.74 478.28 503.97 484.90 C 515.42 502.86 532.77 517.79 550.19 529.80 C 560.94 537.32 572.51 542.76 583.98 549.01 C 586.75 550.62 590.03 552.41 592.00 554.99 C 593.23 556.63 592.80 558.17 592.75 560.05 C 588.12 561.34 583.86 562.85 579.00 563.07 C 567.26 563.76 555.29 560.99 544.01 557.96 C 514.92 549.68 487.24 535.41 464.08 515.90 C 458.13 511.03 452.70 505.85 448.97 499.02 C 445.53 493.04 443.27 485.71 445.96 479.01 C 449.07 472.17 456.27 469.05 463.08 467.12 C 473.27 464.42 484.09 463.67 494.60 464.16 Z"
     fill="#1f9aff"
     id="path34" />
</svg>
